<svg width="390" height="356" viewBox="0 0 390 356" fill="none" xmlns="http://www.w3.org/2000/svg">
<path d="M415.106 227.729C415.798 232.956 415.761 238.253 414.997 243.47L411.309 268.647C407.137 297.135 382.374 318.039 353.589 317.371L100.436 311.497C77.631 310.968 57.3375 296.893 48.8505 275.719L-12.4631 122.753C-28.1312 83.6639 2.53963 41.6658 44.5431 44.6936L346.907 66.4893L353.235 67.5462C377.945 71.6732 397.064 91.4507 400.352 116.286L415.106 227.729Z" fill="#B8B3AF" fill-opacity="0.2"/>
<path d="M110.466 161.773H108.705C108.6 161.266 108.418 160.821 108.158 160.438C107.902 160.054 107.589 159.732 107.22 159.472C106.856 159.207 106.451 159.008 106.006 158.875C105.561 158.743 105.097 158.676 104.614 158.676C103.733 158.676 102.935 158.899 102.22 159.344C101.51 159.789 100.944 160.445 100.523 161.311C100.106 162.178 99.8977 163.241 99.8977 164.5C99.8977 165.76 100.106 166.823 100.523 167.689C100.944 168.556 101.51 169.211 102.22 169.656C102.935 170.102 103.733 170.324 104.614 170.324C105.097 170.324 105.561 170.258 106.006 170.125C106.451 169.993 106.856 169.796 107.22 169.536C107.589 169.271 107.902 168.946 108.158 168.563C108.418 168.174 108.6 167.729 108.705 167.227H110.466C110.333 167.971 110.092 168.636 109.741 169.223C109.391 169.81 108.955 170.31 108.435 170.722C107.914 171.129 107.329 171.439 106.68 171.652C106.036 171.865 105.348 171.972 104.614 171.972C103.373 171.972 102.27 171.669 101.304 171.063C100.338 170.457 99.5781 169.595 99.0241 168.477C98.4702 167.36 98.1932 166.034 98.1932 164.5C98.1932 162.966 98.4702 161.64 99.0241 160.523C99.5781 159.406 100.338 158.544 101.304 157.938C102.27 157.332 103.373 157.029 104.614 157.029C105.348 157.029 106.036 157.135 106.68 157.348C107.329 157.561 107.914 157.874 108.435 158.286C108.955 158.693 109.391 159.19 109.741 159.777C110.092 160.36 110.333 161.025 110.466 161.773ZM116.295 172.029C115.604 172.029 114.976 171.898 114.413 171.638C113.85 171.373 113.402 170.992 113.071 170.495C112.739 169.993 112.574 169.387 112.574 168.676C112.574 168.051 112.697 167.545 112.943 167.156C113.189 166.763 113.518 166.456 113.93 166.233C114.342 166.011 114.797 165.845 115.294 165.736C115.796 165.622 116.3 165.532 116.806 165.466C117.469 165.381 118.007 165.317 118.419 165.274C118.835 165.227 119.138 165.149 119.328 165.04C119.522 164.931 119.619 164.742 119.619 164.472V164.415C119.619 163.714 119.427 163.17 119.044 162.781C118.665 162.393 118.09 162.199 117.318 162.199C116.518 162.199 115.89 162.374 115.436 162.725C114.981 163.075 114.662 163.449 114.477 163.847L112.886 163.279C113.17 162.616 113.549 162.1 114.022 161.73C114.501 161.356 115.021 161.096 115.585 160.949C116.153 160.798 116.712 160.722 117.261 160.722C117.611 160.722 118.014 160.764 118.468 160.85C118.928 160.93 119.37 161.098 119.797 161.354C120.227 161.61 120.585 161.995 120.869 162.512C121.153 163.028 121.295 163.719 121.295 164.585V171.773H119.619V170.296H119.534C119.42 170.532 119.231 170.786 118.966 171.056C118.7 171.326 118.348 171.555 117.907 171.745C117.467 171.934 116.93 172.029 116.295 172.029ZM116.551 170.523C117.214 170.523 117.772 170.393 118.227 170.132C118.686 169.872 119.032 169.536 119.264 169.124C119.501 168.712 119.619 168.279 119.619 167.824V166.29C119.548 166.375 119.392 166.453 119.15 166.524C118.913 166.591 118.639 166.65 118.326 166.702C118.019 166.749 117.718 166.792 117.424 166.83C117.136 166.863 116.901 166.891 116.721 166.915C116.286 166.972 115.878 167.064 115.5 167.192C115.126 167.315 114.823 167.502 114.591 167.753C114.363 167.999 114.25 168.335 114.25 168.762C114.25 169.344 114.465 169.784 114.896 170.083C115.332 170.376 115.883 170.523 116.551 170.523ZM124.354 171.773V160.864H125.974V162.512H126.087C126.286 161.972 126.646 161.534 127.167 161.198C127.688 160.861 128.275 160.693 128.928 160.693C129.051 160.693 129.205 160.696 129.39 160.701C129.575 160.705 129.714 160.712 129.809 160.722V162.426C129.752 162.412 129.622 162.391 129.418 162.362C129.219 162.329 129.009 162.313 128.786 162.313C128.256 162.313 127.782 162.424 127.366 162.647C126.954 162.864 126.627 163.167 126.386 163.556C126.149 163.939 126.031 164.377 126.031 164.87V171.773H124.354ZM136.038 172C134.987 172 134.08 171.768 133.317 171.304C132.56 170.835 131.975 170.182 131.563 169.344C131.156 168.501 130.952 167.521 130.952 166.404C130.952 165.286 131.156 164.301 131.563 163.449C131.975 162.592 132.548 161.924 133.282 161.446C134.021 160.963 134.882 160.722 135.867 160.722C136.435 160.722 136.996 160.817 137.55 161.006C138.104 161.195 138.609 161.503 139.063 161.929C139.518 162.351 139.88 162.909 140.15 163.605C140.42 164.301 140.555 165.158 140.555 166.176V166.887H132.146V165.438H138.85C138.85 164.822 138.727 164.273 138.481 163.79C138.239 163.307 137.894 162.926 137.444 162.647C136.999 162.367 136.473 162.227 135.867 162.227C135.2 162.227 134.622 162.393 134.134 162.725C133.651 163.051 133.28 163.477 133.019 164.003C132.759 164.529 132.629 165.092 132.629 165.693V166.659C132.629 167.483 132.771 168.182 133.055 168.754C133.344 169.323 133.744 169.756 134.255 170.054C134.766 170.348 135.361 170.495 136.038 170.495C136.478 170.495 136.876 170.433 137.231 170.31C137.591 170.182 137.901 169.993 138.161 169.742C138.422 169.486 138.623 169.169 138.765 168.79L140.384 169.245C140.214 169.794 139.927 170.277 139.525 170.693C139.122 171.105 138.625 171.427 138.033 171.659C137.442 171.887 136.776 172 136.038 172ZM143.852 175.864C143.568 175.864 143.315 175.84 143.092 175.793C142.869 175.75 142.716 175.708 142.63 175.665L143.056 174.188C143.464 174.292 143.824 174.33 144.136 174.301C144.449 174.273 144.725 174.133 144.967 173.882C145.213 173.636 145.438 173.236 145.642 172.682L145.954 171.83L141.92 160.864H143.738L146.75 169.557H146.863L149.875 160.864H151.693L147.062 173.364C146.854 173.927 146.596 174.394 146.288 174.763C145.98 175.137 145.623 175.414 145.216 175.594C144.813 175.774 144.359 175.864 143.852 175.864ZM159.757 171.773V157.227H161.519V170.21H168.28V171.773H159.757ZM170.78 171.773V160.864H172.456V171.773H170.78ZM171.632 159.046C171.306 159.046 171.024 158.934 170.787 158.712C170.555 158.489 170.439 158.222 170.439 157.909C170.439 157.597 170.555 157.329 170.787 157.107C171.024 156.884 171.306 156.773 171.632 156.773C171.959 156.773 172.239 156.884 172.471 157.107C172.707 157.329 172.826 157.597 172.826 157.909C172.826 158.222 172.707 158.489 172.471 158.712C172.239 158.934 171.959 159.046 171.632 159.046ZM177.202 165.21V171.773H175.526V160.864H177.146V162.568H177.288C177.543 162.014 177.932 161.569 178.452 161.233C178.973 160.892 179.646 160.722 180.469 160.722C181.208 160.722 181.854 160.873 182.408 161.176C182.962 161.475 183.393 161.929 183.701 162.54C184.009 163.146 184.163 163.913 184.163 164.841V171.773H182.487V164.955C182.487 164.098 182.264 163.43 181.819 162.952C181.374 162.469 180.763 162.227 179.987 162.227C179.451 162.227 178.973 162.343 178.552 162.576C178.135 162.808 177.806 163.146 177.565 163.591C177.323 164.036 177.202 164.576 177.202 165.21ZM191.345 172C190.436 172 189.633 171.771 188.937 171.311C188.241 170.847 187.697 170.194 187.304 169.351C186.911 168.504 186.714 167.502 186.714 166.347C186.714 165.201 186.911 164.207 187.304 163.364C187.697 162.521 188.243 161.87 188.944 161.411C189.645 160.951 190.455 160.722 191.373 160.722C192.083 160.722 192.645 160.84 193.056 161.077C193.473 161.309 193.79 161.574 194.008 161.872C194.231 162.166 194.404 162.407 194.527 162.597H194.669V157.227H196.345V171.773H194.725V170.097H194.527C194.404 170.296 194.228 170.547 194.001 170.85C193.774 171.148 193.449 171.415 193.028 171.652C192.607 171.884 192.046 172 191.345 172ZM191.572 170.495C192.244 170.495 192.813 170.319 193.277 169.969C193.741 169.614 194.093 169.124 194.335 168.499C194.576 167.869 194.697 167.142 194.697 166.318C194.697 165.504 194.579 164.791 194.342 164.181C194.105 163.565 193.755 163.087 193.291 162.746C192.827 162.4 192.254 162.227 191.572 162.227C190.862 162.227 190.27 162.41 189.797 162.774C189.328 163.134 188.975 163.624 188.738 164.245C188.506 164.86 188.39 165.551 188.39 166.318C188.39 167.095 188.509 167.8 188.745 168.435C188.987 169.065 189.342 169.567 189.811 169.941C190.284 170.31 190.871 170.495 191.572 170.495ZM202.858 172.029C202.166 172.029 201.539 171.898 200.975 171.638C200.412 171.373 199.965 170.992 199.633 170.495C199.302 169.993 199.136 169.387 199.136 168.676C199.136 168.051 199.259 167.545 199.505 167.156C199.752 166.763 200.081 166.456 200.493 166.233C200.904 166.011 201.359 165.845 201.856 165.736C202.358 165.622 202.862 165.532 203.369 165.466C204.032 165.381 204.569 165.317 204.981 165.274C205.398 165.227 205.701 165.149 205.89 165.04C206.084 164.931 206.181 164.742 206.181 164.472V164.415C206.181 163.714 205.99 163.17 205.606 162.781C205.227 162.393 204.652 162.199 203.88 162.199C203.08 162.199 202.453 162.374 201.998 162.725C201.544 163.075 201.224 163.449 201.039 163.847L199.449 163.279C199.733 162.616 200.111 162.1 200.585 161.73C201.063 161.356 201.584 161.096 202.147 160.949C202.716 160.798 203.274 160.722 203.824 160.722C204.174 160.722 204.576 160.764 205.031 160.85C205.49 160.93 205.933 161.098 206.359 161.354C206.79 161.61 207.147 161.995 207.431 162.512C207.716 163.028 207.858 163.719 207.858 164.585V171.773H206.181V170.296H206.096C205.983 170.532 205.793 170.786 205.528 171.056C205.263 171.326 204.91 171.555 204.47 171.745C204.029 171.934 203.492 172.029 202.858 172.029ZM203.113 170.523C203.776 170.523 204.335 170.393 204.789 170.132C205.249 169.872 205.594 169.536 205.826 169.124C206.063 168.712 206.181 168.279 206.181 167.824V166.29C206.11 166.375 205.954 166.453 205.713 166.524C205.476 166.591 205.201 166.65 204.889 166.702C204.581 166.749 204.28 166.792 203.987 166.83C203.698 166.863 203.464 166.891 203.284 166.915C202.848 166.972 202.441 167.064 202.062 167.192C201.688 167.315 201.385 167.502 201.153 167.753C200.926 167.999 200.812 168.335 200.812 168.762C200.812 169.344 201.028 169.784 201.458 170.083C201.894 170.376 202.446 170.523 203.113 170.523ZM228.474 161.773H226.712C226.608 161.266 226.426 160.821 226.165 160.438C225.91 160.054 225.597 159.732 225.228 159.472C224.863 159.207 224.459 159.008 224.013 158.875C223.568 158.743 223.104 158.676 222.621 158.676C221.741 158.676 220.943 158.899 220.228 159.344C219.518 159.789 218.952 160.445 218.531 161.311C218.114 162.178 217.906 163.241 217.906 164.5C217.906 165.76 218.114 166.823 218.531 167.689C218.952 168.556 219.518 169.211 220.228 169.656C220.943 170.102 221.741 170.324 222.621 170.324C223.104 170.324 223.568 170.258 224.013 170.125C224.459 169.993 224.863 169.796 225.228 169.536C225.597 169.271 225.91 168.946 226.165 168.563C226.426 168.174 226.608 167.729 226.712 167.227H228.474C228.341 167.971 228.1 168.636 227.749 169.223C227.399 169.81 226.963 170.31 226.442 170.722C225.922 171.129 225.337 171.439 224.688 171.652C224.044 171.865 223.355 171.972 222.621 171.972C221.381 171.972 220.278 171.669 219.312 171.063C218.346 170.457 217.586 169.595 217.032 168.477C216.478 167.36 216.201 166.034 216.201 164.5C216.201 162.966 216.478 161.64 217.032 160.523C217.586 159.406 218.346 158.544 219.312 157.938C220.278 157.332 221.381 157.029 222.621 157.029C223.355 157.029 224.044 157.135 224.688 157.348C225.337 157.561 225.922 157.874 226.442 158.286C226.963 158.693 227.399 159.19 227.749 159.777C228.1 160.36 228.341 161.025 228.474 161.773ZM231.093 171.773V160.864H232.712V162.512H232.826C233.025 161.972 233.384 161.534 233.905 161.198C234.426 160.861 235.013 160.693 235.667 160.693C235.79 160.693 235.944 160.696 236.128 160.701C236.313 160.705 236.453 160.712 236.547 160.722V162.426C236.49 162.412 236.36 162.391 236.157 162.362C235.958 162.329 235.747 162.313 235.525 162.313C234.994 162.313 234.521 162.424 234.104 162.647C233.692 162.864 233.365 163.167 233.124 163.556C232.887 163.939 232.769 164.377 232.769 164.87V171.773H231.093ZM242.634 172C241.649 172 240.785 171.766 240.042 171.297C239.303 170.828 238.725 170.173 238.309 169.33C237.897 168.487 237.691 167.502 237.691 166.375C237.691 165.239 237.897 164.247 238.309 163.399C238.725 162.552 239.303 161.894 240.042 161.425C240.785 160.956 241.649 160.722 242.634 160.722C243.619 160.722 244.48 160.956 245.219 161.425C245.962 161.894 246.54 162.552 246.952 163.399C247.369 164.247 247.577 165.239 247.577 166.375C247.577 167.502 247.369 168.487 246.952 169.33C246.54 170.173 245.962 170.828 245.219 171.297C244.48 171.766 243.619 172 242.634 172ZM242.634 170.495C243.382 170.495 243.998 170.303 244.48 169.919C244.963 169.536 245.321 169.031 245.553 168.406C245.785 167.781 245.901 167.104 245.901 166.375C245.901 165.646 245.785 164.967 245.553 164.337C245.321 163.707 244.963 163.198 244.48 162.81C243.998 162.422 243.382 162.227 242.634 162.227C241.886 162.227 241.27 162.422 240.787 162.81C240.304 163.198 239.947 163.707 239.715 164.337C239.483 164.967 239.367 165.646 239.367 166.375C239.367 167.104 239.483 167.781 239.715 168.406C239.947 169.031 240.304 169.536 240.787 169.919C241.27 170.303 241.886 170.495 242.634 170.495ZM254.567 172C253.583 172 252.719 171.766 251.975 171.297C251.237 170.828 250.659 170.173 250.242 169.33C249.83 168.487 249.624 167.502 249.624 166.375C249.624 165.239 249.83 164.247 250.242 163.399C250.659 162.552 251.237 161.894 251.975 161.425C252.719 160.956 253.583 160.722 254.567 160.722C255.552 160.722 256.414 160.956 257.153 161.425C257.896 161.894 258.474 162.552 258.886 163.399C259.302 164.247 259.511 165.239 259.511 166.375C259.511 167.502 259.302 168.487 258.886 169.33C258.474 170.173 257.896 170.828 257.153 171.297C256.414 171.766 255.552 172 254.567 172ZM254.567 170.495C255.316 170.495 255.931 170.303 256.414 169.919C256.897 169.536 257.254 169.031 257.487 168.406C257.719 167.781 257.835 167.104 257.835 166.375C257.835 165.646 257.719 164.967 257.487 164.337C257.254 163.707 256.897 163.198 256.414 162.81C255.931 162.422 255.316 162.227 254.567 162.227C253.819 162.227 253.204 162.422 252.721 162.81C252.238 163.198 251.88 163.707 251.648 164.337C251.416 164.967 251.3 165.646 251.3 166.375C251.3 167.104 251.416 167.781 251.648 168.406C251.88 169.031 252.238 169.536 252.721 169.919C253.204 170.303 253.819 170.495 254.567 170.495ZM263.632 167.796L263.603 165.722H263.944L268.717 160.864H270.791L265.706 166.006H265.564L263.632 167.796ZM262.069 171.773V157.227H263.745V171.773H262.069ZM269.001 171.773L264.74 166.375L265.933 165.21L271.132 171.773H269.001ZM280.675 163.307L279.17 163.733C279.075 163.482 278.935 163.238 278.751 163.002C278.571 162.76 278.325 162.561 278.012 162.405C277.7 162.249 277.299 162.171 276.812 162.171C276.144 162.171 275.588 162.325 275.143 162.632C274.702 162.935 274.482 163.321 274.482 163.79C274.482 164.207 274.634 164.536 274.937 164.777C275.24 165.019 275.713 165.22 276.357 165.381L277.977 165.779C278.952 166.015 279.679 166.378 280.157 166.865C280.635 167.348 280.874 167.971 280.874 168.733C280.874 169.358 280.694 169.917 280.335 170.409C279.979 170.902 279.482 171.29 278.843 171.574C278.204 171.858 277.46 172 276.613 172C275.5 172 274.579 171.759 273.85 171.276C273.121 170.793 272.659 170.087 272.465 169.159L274.056 168.762C274.208 169.349 274.494 169.789 274.915 170.083C275.342 170.376 275.898 170.523 276.585 170.523C277.366 170.523 277.986 170.357 278.445 170.026C278.909 169.69 279.141 169.287 279.141 168.818C279.141 168.44 279.009 168.122 278.744 167.867C278.478 167.606 278.071 167.412 277.522 167.284L275.704 166.858C274.705 166.621 273.971 166.254 273.502 165.757C273.038 165.255 272.806 164.628 272.806 163.875C272.806 163.26 272.979 162.715 273.325 162.242C273.675 161.768 274.151 161.397 274.752 161.127C275.358 160.857 276.045 160.722 276.812 160.722C277.891 160.722 278.739 160.959 279.354 161.432C279.975 161.906 280.415 162.531 280.675 163.307Z" fill="#2F2222"/>
<path d="M102.085 196C101.129 196 100.336 195.752 99.706 195.254C99.0762 194.757 98.6359 194.083 98.3849 193.23C98.134 192.378 98.0985 191.417 98.2784 190.347C98.4583 189.277 98.8158 188.316 99.3509 187.463C99.8859 186.611 100.535 185.936 101.297 185.439C102.059 184.942 102.871 184.693 103.733 184.693C104.367 184.693 104.931 184.831 105.423 185.105C105.92 185.375 106.33 185.749 106.652 186.227C106.979 186.701 107.204 187.25 107.327 187.875C107.45 188.495 107.455 189.158 107.341 189.864L107.256 190.318H98.5057L98.5909 189.864H106.886C107.028 188.993 106.983 188.202 106.751 187.492C106.524 186.777 106.148 186.209 105.622 185.787C105.101 185.361 104.472 185.148 103.733 185.148C102.985 185.148 102.265 185.37 101.574 185.816C100.883 186.261 100.286 186.867 99.7841 187.634C99.2822 188.401 98.9413 189.267 98.7614 190.233L98.733 190.262C98.572 191.218 98.5885 192.096 98.7827 192.897C98.9768 193.697 99.3509 194.338 99.9048 194.821C100.459 195.304 101.195 195.546 102.114 195.546C102.777 195.546 103.359 195.427 103.861 195.191C104.367 194.954 104.789 194.682 105.125 194.374C105.466 194.066 105.722 193.803 105.892 193.585L106.205 193.841C106.006 194.116 105.719 194.421 105.345 194.757C104.971 195.093 104.512 195.385 103.967 195.631C103.423 195.877 102.795 196 102.085 196ZM110.906 184.864L113.293 189.906L117.355 184.864H117.938L113.506 190.375L116.062 195.773H115.565L113.193 190.759L109.159 195.773H108.562L112.98 190.29L110.409 184.864H110.906ZM118.605 199.864L121.105 184.864H121.56L121.105 187.648H121.162C121.455 187.042 121.813 186.519 122.234 186.078C122.661 185.633 123.136 185.292 123.662 185.056C124.192 184.814 124.751 184.693 125.338 184.693C126.2 184.693 126.903 184.94 127.447 185.432C127.997 185.924 128.371 186.597 128.57 187.449C128.773 188.301 128.785 189.267 128.605 190.347C128.425 191.417 128.089 192.378 127.597 193.23C127.109 194.083 126.51 194.757 125.8 195.254C125.094 195.752 124.315 196 123.463 196C122.885 196 122.372 195.882 121.922 195.645C121.472 195.404 121.105 195.063 120.821 194.622C120.537 194.177 120.348 193.652 120.253 193.046H120.196L119.06 199.864H118.605ZM120.651 190.347C120.49 191.332 120.49 192.217 120.651 193.003C120.812 193.784 121.129 194.405 121.602 194.864C122.076 195.318 122.696 195.546 123.463 195.546C124.23 195.546 124.938 195.318 125.587 194.864C126.235 194.405 126.785 193.784 127.234 193.003C127.684 192.217 127.99 191.332 128.151 190.347C128.312 189.362 128.312 188.479 128.151 187.698C127.99 186.912 127.675 186.291 127.206 185.837C126.737 185.378 126.115 185.148 125.338 185.148C124.571 185.148 123.861 185.378 123.207 185.837C122.554 186.291 122.005 186.912 121.56 187.698C121.115 188.479 120.812 189.362 120.651 190.347ZM133.783 181.227L131.368 195.773H130.913L133.328 181.227H133.783ZM139.093 196C138.232 196 137.498 195.752 136.892 195.254C136.29 194.757 135.859 194.078 135.599 193.216C135.343 192.354 135.306 191.379 135.485 190.29C135.665 189.229 136.02 188.278 136.551 187.435C137.086 186.587 137.73 185.92 138.483 185.432C139.24 184.94 140.04 184.693 140.883 184.693C141.754 184.693 142.491 184.944 143.092 185.446C143.698 185.948 144.129 186.63 144.385 187.492C144.645 188.353 144.69 189.324 144.52 190.404C144.34 191.464 143.982 192.418 143.447 193.266C142.912 194.109 142.266 194.776 141.508 195.269C140.751 195.756 139.946 196 139.093 196ZM139.093 195.546C139.879 195.546 140.62 195.318 141.316 194.864C142.012 194.405 142.604 193.78 143.092 192.989C143.58 192.193 143.904 191.294 144.065 190.29C144.226 189.315 144.195 188.439 143.973 187.662C143.75 186.886 143.374 186.272 142.843 185.823C142.313 185.373 141.669 185.148 140.912 185.148C140.135 185.148 139.399 185.38 138.703 185.844C138.007 186.303 137.413 186.931 136.92 187.726C136.428 188.517 136.101 189.409 135.94 190.404C135.77 191.379 135.796 192.255 136.018 193.031C136.245 193.808 136.624 194.421 137.154 194.871C137.69 195.321 138.336 195.546 139.093 195.546ZM146.812 195.773L148.63 184.864H149.085L148.8 186.597H148.857C149.198 186.029 149.691 185.574 150.335 185.233C150.983 184.892 151.684 184.722 152.437 184.722C152.494 184.722 152.531 184.722 152.55 184.722C152.569 184.722 152.607 184.722 152.664 184.722L152.579 185.176C152.522 185.176 152.484 185.176 152.465 185.176C152.446 185.176 152.408 185.176 152.352 185.176C151.708 185.176 151.111 185.316 150.562 185.595C150.017 185.875 149.56 186.261 149.191 186.753C148.826 187.245 148.592 187.809 148.488 188.443L147.266 195.773H146.812ZM157.046 196C156.09 196 155.297 195.752 154.667 195.254C154.037 194.757 153.597 194.083 153.346 193.23C153.095 192.378 153.059 191.417 153.239 190.347C153.419 189.277 153.777 188.316 154.312 187.463C154.847 186.611 155.496 185.936 156.258 185.439C157.02 184.942 157.832 184.693 158.694 184.693C159.328 184.693 159.892 184.831 160.384 185.105C160.881 185.375 161.291 185.749 161.613 186.227C161.94 186.701 162.165 187.25 162.288 187.875C162.411 188.495 162.415 189.158 162.302 189.864L162.217 190.318H153.467L153.552 189.864H161.847C161.989 188.993 161.944 188.202 161.712 187.492C161.485 186.777 161.109 186.209 160.583 185.787C160.062 185.361 159.433 185.148 158.694 185.148C157.946 185.148 157.226 185.37 156.535 185.816C155.844 186.261 155.247 186.867 154.745 187.634C154.243 188.401 153.902 189.267 153.722 190.233L153.694 190.262C153.533 191.218 153.549 192.096 153.744 192.897C153.938 193.697 154.312 194.338 154.866 194.821C155.42 195.304 156.156 195.546 157.075 195.546C157.737 195.546 158.32 195.427 158.822 195.191C159.328 194.954 159.75 194.682 160.086 194.374C160.427 194.066 160.683 193.803 160.853 193.585L161.165 193.841C160.967 194.116 160.68 194.421 160.306 194.757C159.932 195.093 159.473 195.385 158.928 195.631C158.384 195.877 157.756 196 157.046 196ZM172.481 187.165L172.027 187.25C171.951 186.777 171.809 186.386 171.6 186.078C171.392 185.766 171.115 185.534 170.77 185.382C170.429 185.226 170.014 185.148 169.527 185.148C168.636 185.148 167.881 185.378 167.261 185.837C166.641 186.296 166.269 186.89 166.146 187.62C166.056 188.183 166.158 188.652 166.451 189.026C166.75 189.4 167.254 189.679 167.964 189.864L169.612 190.29C170.379 190.489 170.928 190.835 171.26 191.327C171.596 191.815 171.709 192.397 171.6 193.074C171.506 193.666 171.269 194.182 170.89 194.622C170.511 195.058 170.031 195.397 169.449 195.638C168.871 195.879 168.225 196 167.51 196C166.534 196 165.774 195.761 165.23 195.283C164.69 194.805 164.399 194.125 164.356 193.245L164.811 193.188C164.839 193.955 165.083 194.54 165.542 194.942C166.002 195.344 166.657 195.546 167.51 195.546C168.475 195.546 169.297 195.307 169.974 194.828C170.651 194.345 171.051 193.723 171.174 192.96C171.264 192.402 171.165 191.935 170.876 191.561C170.587 191.187 170.109 190.915 169.441 190.745L167.822 190.318C167.012 190.105 166.425 189.755 166.061 189.267C165.701 188.78 165.578 188.192 165.691 187.506C165.786 186.942 166.009 186.45 166.359 186.029C166.709 185.607 167.154 185.281 167.694 185.049C168.239 184.812 168.84 184.693 169.498 184.693C170.355 184.693 171.035 184.904 171.537 185.326C172.038 185.742 172.353 186.355 172.481 187.165ZM180.526 195.773V184.864H182.202V195.773H180.526ZM181.379 183.046C181.052 183.046 180.77 182.934 180.533 182.712C180.301 182.489 180.185 182.222 180.185 181.909C180.185 181.597 180.301 181.329 180.533 181.107C180.77 180.884 181.052 180.773 181.379 180.773C181.705 180.773 181.985 180.884 182.217 181.107C182.453 181.329 182.572 181.597 182.572 181.909C182.572 182.222 182.453 182.489 182.217 182.712C181.985 182.934 181.705 183.046 181.379 183.046ZM186.949 189.21V195.773H185.272V184.864H186.892V186.568H187.034C187.289 186.014 187.678 185.569 188.199 185.233C188.719 184.892 189.392 184.722 190.216 184.722C190.954 184.722 191.6 184.873 192.154 185.176C192.708 185.475 193.139 185.929 193.447 186.54C193.755 187.146 193.909 187.913 193.909 188.841V195.773H192.233V188.955C192.233 188.098 192.01 187.43 191.565 186.952C191.12 186.469 190.509 186.227 189.733 186.227C189.198 186.227 188.719 186.343 188.298 186.576C187.881 186.808 187.552 187.146 187.311 187.591C187.069 188.036 186.949 188.576 186.949 189.21ZM201.716 184.864V186.284H196.062V184.864H201.716ZM197.71 182.25H199.386V192.648C199.386 193.121 199.455 193.477 199.592 193.713C199.734 193.945 199.914 194.102 200.132 194.182C200.355 194.258 200.589 194.296 200.835 194.296C201.02 194.296 201.171 194.286 201.29 194.267C201.408 194.244 201.503 194.225 201.574 194.21L201.915 195.716C201.801 195.759 201.643 195.801 201.439 195.844C201.235 195.891 200.977 195.915 200.665 195.915C200.191 195.915 199.727 195.813 199.273 195.61C198.823 195.406 198.449 195.096 198.151 194.679C197.857 194.263 197.71 193.737 197.71 193.102V182.25ZM208.694 196C207.643 196 206.736 195.768 205.974 195.304C205.216 194.835 204.631 194.182 204.219 193.344C203.812 192.501 203.609 191.521 203.609 190.404C203.609 189.286 203.812 188.301 204.219 187.449C204.631 186.592 205.204 185.924 205.938 185.446C206.677 184.963 207.539 184.722 208.523 184.722C209.092 184.722 209.653 184.817 210.207 185.006C210.761 185.195 211.265 185.503 211.719 185.929C212.174 186.351 212.536 186.909 212.806 187.605C213.076 188.301 213.211 189.158 213.211 190.176V190.887H204.802V189.438H211.506C211.506 188.822 211.383 188.273 211.137 187.79C210.896 187.307 210.55 186.926 210.1 186.647C209.655 186.367 209.129 186.227 208.523 186.227C207.856 186.227 207.278 186.393 206.79 186.725C206.308 187.051 205.936 187.477 205.675 188.003C205.415 188.529 205.285 189.092 205.285 189.693V190.659C205.285 191.483 205.427 192.182 205.711 192.754C206 193.323 206.4 193.756 206.911 194.054C207.423 194.348 208.017 194.495 208.694 194.495C209.134 194.495 209.532 194.433 209.887 194.31C210.247 194.182 210.557 193.993 210.817 193.742C211.078 193.486 211.279 193.169 211.421 192.79L213.04 193.245C212.87 193.794 212.584 194.277 212.181 194.693C211.779 195.105 211.281 195.427 210.69 195.659C210.098 195.887 209.433 196 208.694 196ZM215.761 195.773V184.864H217.38V186.512H217.494C217.692 185.972 218.052 185.534 218.573 185.198C219.094 184.861 219.681 184.693 220.335 184.693C220.458 184.693 220.612 184.696 220.796 184.701C220.981 184.705 221.121 184.712 221.215 184.722V186.426C221.158 186.412 221.028 186.391 220.825 186.362C220.626 186.329 220.415 186.313 220.192 186.313C219.662 186.313 219.189 186.424 218.772 186.647C218.36 186.864 218.033 187.167 217.792 187.556C217.555 187.939 217.437 188.377 217.437 188.87V195.773H215.761ZM226.412 196.029C225.721 196.029 225.094 195.898 224.53 195.638C223.967 195.373 223.519 194.992 223.188 194.495C222.856 193.993 222.691 193.387 222.691 192.676C222.691 192.051 222.814 191.545 223.06 191.156C223.306 190.763 223.635 190.456 224.047 190.233C224.459 190.011 224.914 189.845 225.411 189.736C225.913 189.622 226.417 189.532 226.924 189.466C227.587 189.381 228.124 189.317 228.536 189.274C228.953 189.227 229.256 189.149 229.445 189.04C229.639 188.931 229.736 188.742 229.736 188.472V188.415C229.736 187.714 229.544 187.17 229.161 186.781C228.782 186.393 228.207 186.199 227.435 186.199C226.635 186.199 226.007 186.374 225.553 186.725C225.098 187.075 224.779 187.449 224.594 187.847L223.003 187.279C223.287 186.616 223.666 186.1 224.14 185.73C224.618 185.356 225.139 185.096 225.702 184.949C226.27 184.798 226.829 184.722 227.378 184.722C227.729 184.722 228.131 184.764 228.586 184.85C229.045 184.93 229.488 185.098 229.914 185.354C230.345 185.61 230.702 185.995 230.986 186.512C231.27 187.028 231.412 187.719 231.412 188.585V195.773H229.736V194.296H229.651C229.537 194.532 229.348 194.786 229.083 195.056C228.818 195.326 228.465 195.555 228.025 195.745C227.584 195.934 227.047 196.029 226.412 196.029ZM226.668 194.523C227.331 194.523 227.89 194.393 228.344 194.132C228.803 193.872 229.149 193.536 229.381 193.124C229.618 192.712 229.736 192.279 229.736 191.824V190.29C229.665 190.375 229.509 190.453 229.267 190.524C229.031 190.591 228.756 190.65 228.444 190.702C228.136 190.749 227.835 190.792 227.542 190.83C227.253 190.863 227.018 190.891 226.838 190.915C226.403 190.972 225.996 191.064 225.617 191.192C225.243 191.315 224.94 191.502 224.708 191.753C224.48 191.999 224.367 192.335 224.367 192.762C224.367 193.344 224.582 193.784 225.013 194.083C225.449 194.376 226 194.523 226.668 194.523ZM238.903 196C237.881 196 237 195.759 236.261 195.276C235.523 194.793 234.955 194.128 234.557 193.28C234.159 192.433 233.96 191.464 233.96 190.375C233.96 189.267 234.164 188.29 234.571 187.442C234.983 186.59 235.556 185.924 236.29 185.446C237.028 184.963 237.89 184.722 238.875 184.722C239.642 184.722 240.333 184.864 240.949 185.148C241.564 185.432 242.069 185.83 242.462 186.341C242.855 186.852 243.098 187.449 243.193 188.131H241.517C241.389 187.634 241.105 187.193 240.665 186.81C240.229 186.422 239.642 186.227 238.903 186.227C238.25 186.227 237.677 186.398 237.185 186.739C236.697 187.075 236.316 187.551 236.041 188.166C235.771 188.777 235.636 189.495 235.636 190.318C235.636 191.161 235.769 191.895 236.034 192.52C236.304 193.145 236.683 193.63 237.17 193.976C237.663 194.322 238.241 194.495 238.903 194.495C239.339 194.495 239.734 194.419 240.089 194.267C240.445 194.116 240.745 193.898 240.991 193.614C241.238 193.33 241.413 192.989 241.517 192.591H243.193C243.098 193.235 242.864 193.815 242.49 194.331C242.121 194.843 241.631 195.25 241.02 195.553C240.414 195.851 239.708 196 238.903 196ZM250.388 184.864V186.284H244.734V184.864H250.388ZM246.382 182.25H248.058V192.648C248.058 193.121 248.127 193.477 248.264 193.713C248.406 193.945 248.586 194.102 248.804 194.182C249.027 194.258 249.261 194.296 249.507 194.296C249.692 194.296 249.843 194.286 249.962 194.267C250.08 194.244 250.175 194.225 250.246 194.21L250.587 195.716C250.473 195.759 250.314 195.801 250.111 195.844C249.907 195.891 249.649 195.915 249.337 195.915C248.863 195.915 248.399 195.813 247.945 195.61C247.495 195.406 247.121 195.096 246.822 194.679C246.529 194.263 246.382 193.737 246.382 193.102V182.25ZM252.909 195.773V184.864H254.585V195.773H252.909ZM253.761 183.046C253.435 183.046 253.153 182.934 252.916 182.712C252.684 182.489 252.568 182.222 252.568 181.909C252.568 181.597 252.684 181.329 252.916 181.107C253.153 180.884 253.435 180.773 253.761 180.773C254.088 180.773 254.367 180.884 254.599 181.107C254.836 181.329 254.955 181.597 254.955 181.909C254.955 182.222 254.836 182.489 254.599 182.712C254.367 182.934 254.088 183.046 253.761 183.046ZM262.087 196C261.102 196 260.238 195.766 259.495 195.297C258.756 194.828 258.178 194.173 257.762 193.33C257.35 192.487 257.144 191.502 257.144 190.375C257.144 189.239 257.35 188.247 257.762 187.399C258.178 186.552 258.756 185.894 259.495 185.425C260.238 184.956 261.102 184.722 262.087 184.722C263.072 184.722 263.934 184.956 264.672 185.425C265.416 185.894 265.993 186.552 266.405 187.399C266.822 188.247 267.03 189.239 267.03 190.375C267.03 191.502 266.822 192.487 266.405 193.33C265.993 194.173 265.416 194.828 264.672 195.297C263.934 195.766 263.072 196 262.087 196ZM262.087 194.495C262.835 194.495 263.451 194.303 263.934 193.919C264.417 193.536 264.774 193.031 265.006 192.406C265.238 191.781 265.354 191.104 265.354 190.375C265.354 189.646 265.238 188.967 265.006 188.337C264.774 187.707 264.417 187.198 263.934 186.81C263.451 186.422 262.835 186.227 262.087 186.227C261.339 186.227 260.723 186.422 260.24 186.81C259.757 187.198 259.4 187.707 259.168 188.337C258.936 188.967 258.82 189.646 258.82 190.375C258.82 191.104 258.936 191.781 259.168 192.406C259.4 193.031 259.757 193.536 260.24 193.919C260.723 194.303 261.339 194.495 262.087 194.495ZM271.265 189.21V195.773H269.589V184.864H271.208V186.568H271.35C271.606 186.014 271.994 185.569 272.515 185.233C273.036 184.892 273.708 184.722 274.532 184.722C275.271 184.722 275.917 184.873 276.471 185.176C277.025 185.475 277.456 185.929 277.763 186.54C278.071 187.146 278.225 187.913 278.225 188.841V195.773H276.549V188.955C276.549 188.098 276.326 187.43 275.881 186.952C275.436 186.469 274.826 186.227 274.049 186.227C273.514 186.227 273.036 186.343 272.614 186.576C272.198 186.808 271.869 187.146 271.627 187.591C271.386 188.036 271.265 188.576 271.265 189.21ZM100.352 219.773L98.9318 208.864H99.3864L100.722 219.148H100.778L105.551 208.864H106.006L107.369 219.148H107.426L112.17 208.864H112.682L107.625 219.773H107L105.665 209.745H105.608L100.977 219.773H100.352ZM113.88 219.773L115.699 208.864H116.153L114.335 219.773H113.88ZM116.281 206.875C116.139 206.875 116.025 206.826 115.94 206.726C115.859 206.627 115.831 206.506 115.855 206.364C115.874 206.264 115.931 206.174 116.025 206.094C116.12 206.009 116.224 205.966 116.338 205.966C116.48 205.966 116.591 206.016 116.672 206.115C116.757 206.215 116.788 206.335 116.764 206.477C116.745 206.582 116.688 206.674 116.593 206.754C116.499 206.835 116.395 206.875 116.281 206.875ZM123.484 208.864L123.399 209.318H119.081L119.166 208.864H123.484ZM121.183 206.25H121.638L119.791 217.472C119.715 217.898 119.746 218.265 119.884 218.573C120.021 218.876 120.232 219.11 120.516 219.276C120.8 219.437 121.126 219.517 121.496 219.517C121.624 219.517 121.747 219.505 121.865 219.482C121.988 219.453 122.121 219.418 122.263 219.375L122.32 219.801C122.163 219.858 122.014 219.901 121.872 219.929C121.735 219.958 121.581 219.972 121.411 219.972C120.965 219.972 120.57 219.87 120.224 219.666C119.884 219.463 119.628 219.174 119.457 218.8C119.292 218.426 119.251 217.983 119.337 217.472L121.183 206.25ZM127.121 212.443L125.899 219.773H125.445L127.859 205.227H128.314L127.433 210.597H127.49C127.831 210.029 128.323 209.574 128.967 209.233C129.616 208.892 130.317 208.722 131.07 208.722C131.799 208.722 132.417 208.88 132.923 209.198C133.43 209.515 133.795 209.953 134.017 210.512C134.24 211.07 134.289 211.714 134.166 212.443L132.945 219.773H132.49L133.712 212.443C133.868 211.477 133.702 210.692 133.214 210.085C132.732 209.479 132.007 209.176 131.041 209.176C130.397 209.176 129.796 209.316 129.237 209.595C128.683 209.875 128.217 210.261 127.838 210.753C127.464 211.245 127.225 211.809 127.121 212.443ZM147.38 220C146.357 220 145.477 219.759 144.738 219.276C143.999 218.793 143.431 218.128 143.033 217.28C142.636 216.433 142.437 215.464 142.437 214.375C142.437 213.267 142.64 212.29 143.048 211.442C143.46 210.59 144.032 209.924 144.766 209.446C145.505 208.963 146.367 208.722 147.352 208.722C148.119 208.722 148.81 208.864 149.425 209.148C150.041 209.432 150.545 209.83 150.938 210.341C151.331 210.852 151.575 211.449 151.67 212.131H149.994C149.866 211.634 149.582 211.193 149.141 210.81C148.706 210.422 148.119 210.227 147.38 210.227C146.727 210.227 146.154 210.398 145.661 210.739C145.174 211.075 144.792 211.551 144.518 212.166C144.248 212.777 144.113 213.495 144.113 214.318C144.113 215.161 144.246 215.895 144.511 216.52C144.781 217.145 145.159 217.63 145.647 217.976C146.139 218.322 146.717 218.495 147.38 218.495C147.816 218.495 148.211 218.419 148.566 218.267C148.921 218.116 149.222 217.898 149.468 217.614C149.714 217.33 149.889 216.989 149.994 216.591H151.67C151.575 217.235 151.341 217.815 150.967 218.331C150.597 218.843 150.107 219.25 149.496 219.553C148.89 219.851 148.185 220 147.38 220ZM158.552 220C157.567 220 156.703 219.766 155.96 219.297C155.221 218.828 154.643 218.173 154.227 217.33C153.815 216.487 153.609 215.502 153.609 214.375C153.609 213.239 153.815 212.247 154.227 211.399C154.643 210.552 155.221 209.894 155.96 209.425C156.703 208.956 157.567 208.722 158.552 208.722C159.537 208.722 160.398 208.956 161.137 209.425C161.88 209.894 162.458 210.552 162.87 211.399C163.287 212.247 163.495 213.239 163.495 214.375C163.495 215.502 163.287 216.487 162.87 217.33C162.458 218.173 161.88 218.828 161.137 219.297C160.398 219.766 159.537 220 158.552 220ZM158.552 218.495C159.3 218.495 159.915 218.303 160.398 217.919C160.881 217.536 161.239 217.031 161.471 216.406C161.703 215.781 161.819 215.104 161.819 214.375C161.819 213.646 161.703 212.967 161.471 212.337C161.239 211.707 160.881 211.198 160.398 210.81C159.915 210.422 159.3 210.227 158.552 210.227C157.804 210.227 157.188 210.422 156.705 210.81C156.222 211.198 155.865 211.707 155.633 212.337C155.401 212.967 155.285 213.646 155.285 214.375C155.285 215.104 155.401 215.781 155.633 216.406C155.865 217.031 156.222 217.536 156.705 217.919C157.188 218.303 157.804 218.495 158.552 218.495ZM166.054 219.773V208.864H167.673V210.568H167.815C168.042 209.986 168.409 209.534 168.916 209.212C169.422 208.885 170.031 208.722 170.741 208.722C171.461 208.722 172.06 208.885 172.538 209.212C173.021 209.534 173.397 209.986 173.667 210.568H173.781C174.06 210.005 174.479 209.558 175.038 209.226C175.597 208.89 176.267 208.722 177.048 208.722C178.023 208.722 178.821 209.027 179.441 209.638C180.062 210.244 180.372 211.189 180.372 212.472V219.773H178.696V212.472C178.696 211.667 178.475 211.092 178.035 210.746C177.595 210.4 177.076 210.227 176.48 210.227C175.713 210.227 175.118 210.46 174.697 210.924C174.276 211.383 174.065 211.965 174.065 212.671V219.773H172.36V212.301C172.36 211.681 172.159 211.182 171.757 210.803C171.354 210.419 170.836 210.227 170.201 210.227C169.766 210.227 169.359 210.343 168.98 210.576C168.606 210.808 168.303 211.129 168.071 211.541C167.843 211.949 167.73 212.42 167.73 212.955V219.773H166.054ZM183.436 223.864V208.864H185.056V210.597H185.255C185.378 210.407 185.548 210.166 185.766 209.872C185.989 209.574 186.306 209.309 186.718 209.077C187.134 208.84 187.698 208.722 188.408 208.722C189.327 208.722 190.136 208.951 190.837 209.411C191.538 209.87 192.085 210.521 192.478 211.364C192.871 212.207 193.067 213.201 193.067 214.347C193.067 215.502 192.871 216.504 192.478 217.351C192.085 218.194 191.54 218.847 190.844 219.311C190.148 219.771 189.346 220 188.436 220C187.736 220 187.175 219.884 186.753 219.652C186.332 219.415 186.007 219.148 185.78 218.85C185.553 218.547 185.378 218.296 185.255 218.097H185.113V223.864H183.436ZM185.084 214.318C185.084 215.142 185.205 215.869 185.446 216.499C185.688 217.124 186.041 217.614 186.505 217.969C186.969 218.319 187.537 218.495 188.209 218.495C188.91 218.495 189.495 218.31 189.963 217.941C190.437 217.567 190.792 217.065 191.029 216.435C191.27 215.8 191.391 215.095 191.391 214.318C191.391 213.551 191.273 212.86 191.036 212.245C190.804 211.624 190.451 211.134 189.978 210.774C189.509 210.41 188.919 210.227 188.209 210.227C187.527 210.227 186.954 210.4 186.49 210.746C186.026 211.087 185.676 211.565 185.439 212.181C185.203 212.791 185.084 213.504 185.084 214.318ZM197.3 205.227V219.773H195.624V205.227H197.3ZM204.944 220C203.893 220 202.986 219.768 202.224 219.304C201.466 218.835 200.881 218.182 200.469 217.344C200.062 216.501 199.859 215.521 199.859 214.404C199.859 213.286 200.062 212.301 200.469 211.449C200.881 210.592 201.454 209.924 202.188 209.446C202.927 208.963 203.789 208.722 204.773 208.722C205.342 208.722 205.903 208.817 206.457 209.006C207.011 209.195 207.515 209.503 207.969 209.929C208.424 210.351 208.786 210.909 209.056 211.605C209.326 212.301 209.461 213.158 209.461 214.176V214.887H201.052V213.438H207.756C207.756 212.822 207.633 212.273 207.387 211.79C207.146 211.307 206.8 210.926 206.35 210.647C205.905 210.367 205.379 210.227 204.773 210.227C204.106 210.227 203.528 210.393 203.04 210.725C202.558 211.051 202.186 211.477 201.925 212.003C201.665 212.529 201.535 213.092 201.535 213.693V214.659C201.535 215.483 201.677 216.182 201.961 216.754C202.25 217.323 202.65 217.756 203.161 218.054C203.673 218.348 204.267 218.495 204.944 218.495C205.384 218.495 205.782 218.433 206.137 218.31C206.497 218.182 206.807 217.993 207.067 217.742C207.328 217.486 207.529 217.169 207.671 216.79L209.29 217.245C209.12 217.794 208.834 218.277 208.431 218.693C208.029 219.105 207.531 219.427 206.94 219.659C206.348 219.887 205.683 220 204.944 220ZM212.968 208.864L215.581 213.324L218.195 208.864H220.127L216.604 214.318L220.127 219.773H218.195L215.581 215.54L212.968 219.773H211.036L214.502 214.318L211.036 208.864H212.968ZM235.871 211.307L234.365 211.733C234.27 211.482 234.131 211.238 233.946 211.002C233.766 210.76 233.52 210.561 233.207 210.405C232.895 210.249 232.495 210.171 232.007 210.171C231.339 210.171 230.783 210.325 230.338 210.632C229.898 210.935 229.678 211.321 229.678 211.79C229.678 212.207 229.829 212.536 230.132 212.777C230.435 213.019 230.909 213.22 231.553 213.381L233.172 213.779C234.147 214.015 234.874 214.378 235.352 214.865C235.83 215.348 236.07 215.971 236.07 216.733C236.07 217.358 235.89 217.917 235.53 218.409C235.175 218.902 234.678 219.29 234.038 219.574C233.399 219.858 232.656 220 231.808 220C230.696 220 229.775 219.759 229.045 219.276C228.316 218.793 227.855 218.087 227.661 217.159L229.251 216.762C229.403 217.349 229.689 217.789 230.111 218.083C230.537 218.376 231.093 218.523 231.78 218.523C232.561 218.523 233.181 218.357 233.641 218.026C234.105 217.69 234.337 217.287 234.337 216.818C234.337 216.44 234.204 216.122 233.939 215.867C233.674 215.606 233.267 215.412 232.717 215.284L230.899 214.858C229.9 214.621 229.166 214.254 228.697 213.757C228.233 213.255 228.001 212.628 228.001 211.875C228.001 211.26 228.174 210.715 228.52 210.242C228.87 209.768 229.346 209.397 229.947 209.127C230.554 208.857 231.24 208.722 232.007 208.722C233.087 208.722 233.934 208.959 234.55 209.432C235.17 209.906 235.61 210.531 235.871 211.307ZM239.672 223.864C239.388 223.864 239.135 223.84 238.912 223.793C238.69 223.75 238.536 223.708 238.451 223.665L238.877 222.188C239.284 222.292 239.644 222.33 239.956 222.301C240.269 222.273 240.546 222.133 240.787 221.882C241.033 221.636 241.258 221.236 241.462 220.682L241.775 219.83L237.74 208.864H239.559L242.57 217.557H242.684L245.695 208.864H247.513L242.882 221.364C242.674 221.927 242.416 222.394 242.108 222.763C241.801 223.137 241.443 223.414 241.036 223.594C240.633 223.774 240.179 223.864 239.672 223.864ZM257.453 211.307L255.947 211.733C255.852 211.482 255.713 211.238 255.528 211.002C255.348 210.76 255.102 210.561 254.789 210.405C254.477 210.249 254.077 210.171 253.589 210.171C252.922 210.171 252.365 210.325 251.92 210.632C251.48 210.935 251.26 211.321 251.26 211.79C251.26 212.207 251.411 212.536 251.714 212.777C252.017 213.019 252.491 213.22 253.135 213.381L254.754 213.779C255.729 214.015 256.456 214.378 256.934 214.865C257.413 215.348 257.652 215.971 257.652 216.733C257.652 217.358 257.472 217.917 257.112 218.409C256.757 218.902 256.26 219.29 255.62 219.574C254.981 219.858 254.238 220 253.39 220C252.278 220 251.357 219.759 250.627 219.276C249.898 218.793 249.437 218.087 249.243 217.159L250.833 216.762C250.985 217.349 251.271 217.789 251.693 218.083C252.119 218.376 252.675 218.523 253.362 218.523C254.143 218.523 254.763 218.357 255.223 218.026C255.687 217.69 255.919 217.287 255.919 216.818C255.919 216.44 255.786 216.122 255.521 215.867C255.256 215.606 254.849 215.412 254.299 215.284L252.481 214.858C251.482 214.621 250.748 214.254 250.279 213.757C249.815 213.255 249.583 212.628 249.583 211.875C249.583 211.26 249.756 210.715 250.102 210.242C250.452 209.768 250.928 209.397 251.529 209.127C252.136 208.857 252.822 208.722 253.589 208.722C254.669 208.722 255.516 208.959 256.132 209.432C256.752 209.906 257.192 210.531 257.453 211.307ZM264.919 208.864V210.284H259.266V208.864H264.919ZM260.913 206.25H262.589V216.648C262.589 217.121 262.658 217.477 262.795 217.713C262.938 217.945 263.117 218.102 263.335 218.182C263.558 218.258 263.792 218.296 264.038 218.296C264.223 218.296 264.375 218.286 264.493 218.267C264.611 218.244 264.706 218.225 264.777 218.21L265.118 219.716C265.004 219.759 264.846 219.801 264.642 219.844C264.438 219.891 264.18 219.915 263.868 219.915C263.394 219.915 262.93 219.813 262.476 219.61C262.026 219.406 261.652 219.096 261.354 218.679C261.06 218.263 260.913 217.737 260.913 217.102V206.25ZM271.897 220C270.846 220 269.939 219.768 269.177 219.304C268.419 218.835 267.835 218.182 267.423 217.344C267.015 216.501 266.812 215.521 266.812 214.404C266.812 213.286 267.015 212.301 267.423 211.449C267.835 210.592 268.407 209.924 269.141 209.446C269.88 208.963 270.742 208.722 271.727 208.722C272.295 208.722 272.856 208.817 273.41 209.006C273.964 209.195 274.468 209.503 274.923 209.929C275.377 210.351 275.739 210.909 276.009 211.605C276.279 212.301 276.414 213.158 276.414 214.176V214.887H268.005V213.438H274.71C274.71 212.822 274.586 212.273 274.34 211.79C274.099 211.307 273.753 210.926 273.303 210.647C272.858 210.367 272.333 210.227 271.727 210.227C271.059 210.227 270.481 210.393 269.994 210.725C269.511 211.051 269.139 211.477 268.879 212.003C268.618 212.529 268.488 213.092 268.488 213.693V214.659C268.488 215.483 268.63 216.182 268.914 216.754C269.203 217.323 269.603 217.756 270.114 218.054C270.626 218.348 271.22 218.495 271.897 218.495C272.337 218.495 272.735 218.433 273.09 218.31C273.45 218.182 273.76 217.993 274.021 217.742C274.281 217.486 274.482 217.169 274.624 216.79L276.244 217.245C276.073 217.794 275.787 218.277 275.384 218.693C274.982 219.105 274.485 219.427 273.893 219.659C273.301 219.887 272.636 220 271.897 220ZM278.964 219.773V208.864H280.583V210.568H280.725C280.952 209.986 281.319 209.534 281.826 209.212C282.333 208.885 282.941 208.722 283.651 208.722C284.371 208.722 284.97 208.885 285.448 209.212C285.931 209.534 286.308 209.986 286.577 210.568H286.691C286.97 210.005 287.389 209.558 287.948 209.226C288.507 208.89 289.177 208.722 289.958 208.722C290.933 208.722 291.731 209.027 292.352 209.638C292.972 210.244 293.282 211.189 293.282 212.472V219.773H291.606V212.472C291.606 211.667 291.386 211.092 290.945 210.746C290.505 210.4 289.987 210.227 289.39 210.227C288.623 210.227 288.029 210.46 287.607 210.924C287.186 211.383 286.975 211.965 286.975 212.671V219.773H285.271V212.301C285.271 211.681 285.069 211.182 284.667 210.803C284.264 210.419 283.746 210.227 283.112 210.227C282.676 210.227 282.269 210.343 281.89 210.576C281.516 210.808 281.213 211.129 280.981 211.541C280.754 211.949 280.64 212.42 280.64 212.955V219.773H278.964ZM304.074 211.307L302.568 211.733C302.473 211.482 302.334 211.238 302.149 211.002C301.969 210.76 301.723 210.561 301.411 210.405C301.098 210.249 300.698 210.171 300.21 210.171C299.543 210.171 298.986 210.325 298.541 210.632C298.101 210.935 297.881 211.321 297.881 211.79C297.881 212.207 298.032 212.536 298.335 212.777C298.638 213.019 299.112 213.22 299.756 213.381L301.375 213.779C302.35 214.015 303.077 214.378 303.555 214.865C304.034 215.348 304.273 215.971 304.273 216.733C304.273 217.358 304.093 217.917 303.733 218.409C303.378 218.902 302.881 219.29 302.241 219.574C301.602 219.858 300.859 220 300.011 220C298.899 220 297.978 219.759 297.249 219.276C296.519 218.793 296.058 218.087 295.864 217.159L297.455 216.762C297.606 217.349 297.893 217.789 298.314 218.083C298.74 218.376 299.296 218.523 299.983 218.523C300.764 218.523 301.384 218.357 301.844 218.026C302.308 217.69 302.54 217.287 302.54 216.818C302.54 216.44 302.407 216.122 302.142 215.867C301.877 215.606 301.47 215.412 300.92 215.284L299.102 214.858C298.103 214.621 297.369 214.254 296.901 213.757C296.437 213.255 296.205 212.628 296.205 211.875C296.205 211.26 296.377 210.715 296.723 210.242C297.073 209.768 297.549 209.397 298.151 209.127C298.757 208.857 299.443 208.722 300.21 208.722C301.29 208.722 302.137 208.959 302.753 209.432C303.373 209.906 303.813 210.531 304.074 211.307ZM308.017 219.887C307.667 219.887 307.366 219.761 307.115 219.51C306.864 219.259 306.739 218.959 306.739 218.608C306.739 218.258 306.864 217.957 307.115 217.706C307.366 217.455 307.667 217.33 308.017 217.33C308.368 217.33 308.668 217.455 308.919 217.706C309.17 217.957 309.296 218.258 309.296 218.608C309.296 218.84 309.237 219.053 309.118 219.247C309.005 219.442 308.851 219.598 308.657 219.716C308.467 219.83 308.254 219.887 308.017 219.887Z" fill="#2F2222" fill-opacity="0.75"/>
</svg>
