<svg width="208" height="310" viewBox="0 0 208 310" fill="none" xmlns="http://www.w3.org/2000/svg">
<path d="M136.279 49.2062C144.731 44.221 154.664 42.3604 164.347 43.9486C187.782 47.7925 203.34 70.3254 198.632 93.6019L165.439 257.69C159.832 285.408 132.743 303.271 105.057 297.508L21.5782 280.129L-40.9513 261.745C-81.7877 249.738 -90.8158 195.943 -56.1361 171.263L14.1668 121.233L136.279 49.2062Z" fill="#C9B5A9" fill-opacity="0.2"/>
<path d="M46 179H42.4091V167.364H46.1591C47.2879 167.364 48.2538 167.597 49.0568 168.062C49.8598 168.525 50.4754 169.189 50.9034 170.057C51.3314 170.92 51.5455 171.955 51.5455 173.159C51.5455 174.371 51.3295 175.415 50.8977 176.29C50.4659 177.161 49.8371 177.831 49.0114 178.301C48.1856 178.767 47.1818 179 46 179ZM43.8182 177.75H45.9091C46.8712 177.75 47.6686 177.564 48.3011 177.193C48.9337 176.822 49.4053 176.294 49.7159 175.608C50.0265 174.922 50.1818 174.106 50.1818 173.159C50.1818 172.22 50.0284 171.411 49.7216 170.733C49.4148 170.051 48.9564 169.528 48.3466 169.165C47.7367 168.797 46.9773 168.614 46.0682 168.614H43.8182V177.75ZM57.3864 179.182C56.5455 179.182 55.8201 178.996 55.2102 178.625C54.6042 178.25 54.1364 177.727 53.8068 177.057C53.4811 176.383 53.3182 175.598 53.3182 174.705C53.3182 173.811 53.4811 173.023 53.8068 172.341C54.1364 171.655 54.5947 171.121 55.1818 170.739C55.7727 170.352 56.4621 170.159 57.25 170.159C57.7045 170.159 58.1534 170.235 58.5966 170.386C59.0398 170.538 59.4432 170.784 59.8068 171.125C60.1705 171.462 60.4602 171.909 60.6761 172.466C60.892 173.023 61 173.708 61 174.523V175.091H54.2727V173.932H59.6364C59.6364 173.439 59.5379 173 59.3409 172.614C59.1477 172.227 58.8712 171.922 58.5114 171.699C58.1553 171.475 57.7348 171.364 57.25 171.364C56.7159 171.364 56.2538 171.496 55.8636 171.761C55.4773 172.023 55.1799 172.364 54.9716 172.784C54.7633 173.205 54.6591 173.655 54.6591 174.136V174.909C54.6591 175.568 54.7727 176.127 55 176.585C55.2311 177.04 55.5511 177.386 55.9602 177.625C56.3693 177.86 56.8447 177.977 57.3864 177.977C57.7386 177.977 58.0568 177.928 58.3409 177.83C58.6288 177.727 58.8769 177.576 59.0852 177.375C59.2936 177.17 59.4545 176.917 59.5682 176.614L60.8636 176.977C60.7273 177.417 60.4981 177.803 60.1761 178.136C59.8542 178.466 59.4564 178.723 58.983 178.909C58.5095 179.091 57.9773 179.182 57.3864 179.182ZM69.2216 172.227L68.017 172.568C67.9413 172.367 67.8295 172.172 67.6818 171.983C67.5379 171.79 67.3409 171.631 67.0909 171.506C66.8409 171.381 66.5208 171.318 66.1307 171.318C65.5966 171.318 65.1515 171.441 64.7955 171.688C64.4432 171.93 64.267 172.239 64.267 172.614C64.267 172.947 64.3883 173.21 64.6307 173.403C64.8731 173.597 65.2519 173.758 65.767 173.886L67.0625 174.205C67.8428 174.394 68.4242 174.684 68.8068 175.074C69.1894 175.46 69.3807 175.958 69.3807 176.568C69.3807 177.068 69.2367 177.515 68.9489 177.909C68.6648 178.303 68.267 178.614 67.7557 178.841C67.2443 179.068 66.6496 179.182 65.9716 179.182C65.0814 179.182 64.3447 178.989 63.7614 178.602C63.178 178.216 62.8087 177.652 62.6534 176.909L63.9261 176.591C64.0473 177.061 64.2765 177.413 64.6136 177.648C64.9545 177.883 65.3996 178 65.9489 178C66.5739 178 67.0701 177.867 67.4375 177.602C67.8087 177.333 67.9943 177.011 67.9943 176.636C67.9943 176.333 67.8883 176.08 67.6761 175.875C67.464 175.667 67.1383 175.511 66.6989 175.409L65.2443 175.068C64.4451 174.879 63.858 174.585 63.483 174.188C63.1117 173.786 62.9261 173.284 62.9261 172.682C62.9261 172.189 63.0644 171.754 63.3409 171.375C63.6212 170.996 64.0019 170.699 64.483 170.483C64.9678 170.267 65.517 170.159 66.1307 170.159C66.9943 170.159 67.6723 170.348 68.1648 170.727C68.661 171.106 69.0133 171.606 69.2216 172.227ZM71.3991 179V170.273H72.7401V179H71.3991ZM72.081 168.818C71.8196 168.818 71.5942 168.729 71.4048 168.551C71.2192 168.373 71.1264 168.159 71.1264 167.909C71.1264 167.659 71.2192 167.445 71.4048 167.267C71.5942 167.089 71.8196 167 72.081 167C72.3423 167 72.5658 167.089 72.7514 167.267C72.9408 167.445 73.0355 167.659 73.0355 167.909C73.0355 168.159 72.9408 168.373 72.7514 168.551C72.5658 168.729 72.3423 168.818 72.081 168.818ZM78.7188 182.455C78.071 182.455 77.5142 182.371 77.0483 182.205C76.5824 182.042 76.1941 181.826 75.8835 181.557C75.5767 181.292 75.3324 181.008 75.1506 180.705L76.2188 179.955C76.34 180.114 76.4934 180.295 76.679 180.5C76.8646 180.708 77.1184 180.888 77.4403 181.04C77.7661 181.195 78.1922 181.273 78.7188 181.273C79.4233 181.273 80.0047 181.102 80.4631 180.761C80.9214 180.42 81.1506 179.886 81.1506 179.159V177.386H81.0369C80.9384 177.545 80.7983 177.742 80.6165 177.977C80.4384 178.208 80.1809 178.415 79.8438 178.597C79.5104 178.775 79.0597 178.864 78.4915 178.864C77.7869 178.864 77.1544 178.697 76.5938 178.364C76.0369 178.03 75.5956 177.545 75.2699 176.909C74.9479 176.273 74.7869 175.5 74.7869 174.591C74.7869 173.697 74.9441 172.919 75.2585 172.256C75.5729 171.589 76.0104 171.074 76.571 170.71C77.1316 170.343 77.7794 170.159 78.5142 170.159C79.0824 170.159 79.5331 170.254 79.8665 170.443C80.2036 170.629 80.4612 170.841 80.6392 171.08C80.821 171.314 80.9612 171.508 81.0597 171.659H81.196V170.273H82.4915V179.25C82.4915 180 82.321 180.61 81.9801 181.08C81.643 181.553 81.1884 181.9 80.6165 182.119C80.0483 182.343 79.4157 182.455 78.7188 182.455ZM78.6733 177.659C79.2112 177.659 79.6657 177.536 80.0369 177.29C80.4081 177.044 80.6903 176.689 80.8835 176.227C81.0767 175.765 81.1733 175.212 81.1733 174.568C81.1733 173.939 81.0786 173.384 80.8892 172.903C80.6998 172.422 80.4195 172.045 80.0483 171.773C79.6771 171.5 79.2188 171.364 78.6733 171.364C78.1051 171.364 77.6316 171.508 77.2528 171.795C76.8778 172.083 76.5956 172.47 76.4062 172.955C76.2206 173.439 76.1278 173.977 76.1278 174.568C76.1278 175.174 76.2225 175.71 76.4119 176.176C76.6051 176.638 76.8892 177.002 77.2642 177.267C77.643 177.528 78.1127 177.659 78.6733 177.659ZM86.2869 173.75V179H84.946V170.273H86.2415V171.636H86.3551C86.5597 171.193 86.8703 170.837 87.2869 170.568C87.7036 170.295 88.2415 170.159 88.9006 170.159C89.4915 170.159 90.0085 170.28 90.4517 170.523C90.8949 170.761 91.2396 171.125 91.4858 171.614C91.732 172.098 91.8551 172.712 91.8551 173.455V179H90.5142V173.545C90.5142 172.86 90.3362 172.326 89.9801 171.943C89.6241 171.557 89.1354 171.364 88.5142 171.364C88.0862 171.364 87.7036 171.456 87.3665 171.642C87.0331 171.828 86.7699 172.098 86.5767 172.455C86.3835 172.811 86.2869 173.242 86.2869 173.75ZM102.101 179.159C101.336 179.159 100.677 179.019 100.124 178.739C99.5705 178.458 99.1444 178.074 98.8452 177.585C98.5459 177.097 98.3963 176.538 98.3963 175.909C98.3963 175.424 98.4986 174.994 98.7031 174.619C98.9115 174.241 99.1974 173.89 99.5611 173.568C99.9285 173.242 100.351 172.917 100.828 172.591L102.51 171.341C102.839 171.125 103.103 170.894 103.3 170.648C103.5 170.402 103.601 170.08 103.601 169.682C103.601 169.386 103.47 169.1 103.209 168.824C102.951 168.547 102.612 168.409 102.192 168.409C101.896 168.409 101.635 168.485 101.408 168.636C101.184 168.784 101.008 168.973 100.879 169.205C100.754 169.432 100.692 169.667 100.692 169.909C100.692 170.182 100.766 170.458 100.913 170.739C101.065 171.015 101.256 171.299 101.487 171.591C101.722 171.879 101.964 172.174 102.214 172.477L107.555 179H105.942L101.533 173.682C101.124 173.189 100.752 172.742 100.419 172.341C100.086 171.939 99.8205 171.544 99.6236 171.153C99.4266 170.763 99.3281 170.341 99.3281 169.886C99.3281 169.364 99.4437 168.905 99.6747 168.511C99.9096 168.114 100.237 167.805 100.658 167.585C101.082 167.362 101.578 167.25 102.146 167.25C102.73 167.25 103.232 167.364 103.652 167.591C104.072 167.814 104.396 168.112 104.624 168.483C104.851 168.85 104.964 169.25 104.964 169.682C104.964 170.239 104.826 170.722 104.55 171.131C104.273 171.54 103.896 171.92 103.419 172.273L101.101 174C100.578 174.386 100.224 174.761 100.038 175.125C99.8527 175.489 99.7599 175.75 99.7599 175.909C99.7599 176.273 99.8546 176.612 100.044 176.926C100.233 177.241 100.5 177.494 100.845 177.688C101.19 177.881 101.593 177.977 102.055 177.977C102.495 177.977 102.923 177.884 103.339 177.699C103.756 177.509 104.133 177.237 104.47 176.881C104.811 176.525 105.08 176.097 105.277 175.597C105.478 175.097 105.578 174.534 105.578 173.909H106.874C106.874 174.682 106.785 175.312 106.607 175.801C106.429 176.29 106.228 176.672 106.004 176.949C105.781 177.225 105.601 177.432 105.464 177.568C105.419 177.625 105.377 177.682 105.339 177.739C105.302 177.795 105.26 177.852 105.214 177.909C104.839 178.33 104.366 178.644 103.794 178.852C103.222 179.057 102.658 179.159 102.101 179.159ZM42.4091 198V186.364H46.3409C47.25 186.364 47.9962 186.519 48.5795 186.83C49.1629 187.136 49.5947 187.559 49.875 188.097C50.1553 188.634 50.2955 189.246 50.2955 189.932C50.2955 190.617 50.1553 191.225 49.875 191.756C49.5947 192.286 49.1648 192.703 48.5852 193.006C48.0057 193.305 47.2652 193.455 46.3636 193.455H43.1818V192.182H46.3182C46.9394 192.182 47.4394 192.091 47.8182 191.909C48.2008 191.727 48.4773 191.47 48.6477 191.136C48.822 190.799 48.9091 190.398 48.9091 189.932C48.9091 189.466 48.822 189.059 48.6477 188.71C48.4735 188.362 48.1951 188.093 47.8125 187.903C47.4299 187.71 46.9242 187.614 46.2955 187.614H43.8182V198H42.4091ZM47.8864 192.773L50.75 198H49.1136L46.2955 192.773H47.8864ZM56.027 198.182C55.1861 198.182 54.4607 197.996 53.8509 197.625C53.2448 197.25 52.777 196.727 52.4474 196.057C52.1217 195.383 51.9588 194.598 51.9588 193.705C51.9588 192.811 52.1217 192.023 52.4474 191.341C52.777 190.655 53.2353 190.121 53.8224 189.739C54.4134 189.352 55.1027 189.159 55.8906 189.159C56.3452 189.159 56.794 189.235 57.2372 189.386C57.6804 189.538 58.0838 189.784 58.4474 190.125C58.8111 190.462 59.1009 190.909 59.3168 191.466C59.5327 192.023 59.6406 192.708 59.6406 193.523V194.091H52.9134V192.932H58.277C58.277 192.439 58.1785 192 57.9815 191.614C57.7884 191.227 57.5118 190.922 57.152 190.699C56.7959 190.475 56.3755 190.364 55.8906 190.364C55.3565 190.364 54.8944 190.496 54.5043 190.761C54.1179 191.023 53.8205 191.364 53.6122 191.784C53.4039 192.205 53.2997 192.655 53.2997 193.136V193.909C53.2997 194.568 53.4134 195.127 53.6406 195.585C53.8717 196.04 54.1918 196.386 54.6009 196.625C55.0099 196.86 55.4853 196.977 56.027 196.977C56.3793 196.977 56.6974 196.928 56.9815 196.83C57.2694 196.727 57.5175 196.576 57.7259 196.375C57.9342 196.17 58.0952 195.917 58.2088 195.614L59.5043 195.977C59.3679 196.417 59.1387 196.803 58.8168 197.136C58.4948 197.466 58.0971 197.723 57.6236 197.909C57.1501 198.091 56.6179 198.182 56.027 198.182ZM67.8622 191.227L66.6577 191.568C66.5819 191.367 66.4702 191.172 66.3224 190.983C66.1785 190.79 65.9815 190.631 65.7315 190.506C65.4815 190.381 65.1615 190.318 64.7713 190.318C64.2372 190.318 63.7921 190.441 63.4361 190.688C63.0838 190.93 62.9077 191.239 62.9077 191.614C62.9077 191.947 63.0289 192.21 63.2713 192.403C63.5137 192.597 63.8925 192.758 64.4077 192.886L65.7031 193.205C66.4834 193.394 67.0649 193.684 67.4474 194.074C67.83 194.46 68.0213 194.958 68.0213 195.568C68.0213 196.068 67.8774 196.515 67.5895 196.909C67.3054 197.303 66.9077 197.614 66.3963 197.841C65.8849 198.068 65.2902 198.182 64.6122 198.182C63.7221 198.182 62.9853 197.989 62.402 197.602C61.8187 197.216 61.4493 196.652 61.294 195.909L62.5668 195.591C62.688 196.061 62.9171 196.413 63.2543 196.648C63.5952 196.883 64.0402 197 64.5895 197C65.2145 197 65.7107 196.867 66.0781 196.602C66.4493 196.333 66.6349 196.011 66.6349 195.636C66.6349 195.333 66.5289 195.08 66.3168 194.875C66.1046 194.667 65.7789 194.511 65.3395 194.409L63.8849 194.068C63.0857 193.879 62.4986 193.585 62.1236 193.188C61.7524 192.786 61.5668 192.284 61.5668 191.682C61.5668 191.189 61.705 190.754 61.9815 190.375C62.2618 189.996 62.6425 189.699 63.1236 189.483C63.6084 189.267 64.1577 189.159 64.7713 189.159C65.6349 189.159 66.313 189.348 66.8054 189.727C67.3016 190.106 67.6539 190.606 67.8622 191.227ZM73.6989 198.182C72.858 198.182 72.1326 197.996 71.5227 197.625C70.9167 197.25 70.4489 196.727 70.1193 196.057C69.7936 195.383 69.6307 194.598 69.6307 193.705C69.6307 192.811 69.7936 192.023 70.1193 191.341C70.4489 190.655 70.9072 190.121 71.4943 189.739C72.0852 189.352 72.7746 189.159 73.5625 189.159C74.017 189.159 74.4659 189.235 74.9091 189.386C75.3523 189.538 75.7557 189.784 76.1193 190.125C76.483 190.462 76.7727 190.909 76.9886 191.466C77.2045 192.023 77.3125 192.708 77.3125 193.523V194.091H70.5852V192.932H75.9489C75.9489 192.439 75.8504 192 75.6534 191.614C75.4602 191.227 75.1837 190.922 74.8239 190.699C74.4678 190.475 74.0473 190.364 73.5625 190.364C73.0284 190.364 72.5663 190.496 72.1761 190.761C71.7898 191.023 71.4924 191.364 71.2841 191.784C71.0758 192.205 70.9716 192.655 70.9716 193.136V193.909C70.9716 194.568 71.0852 195.127 71.3125 195.585C71.5436 196.04 71.8636 196.386 72.2727 196.625C72.6818 196.86 73.1572 196.977 73.6989 196.977C74.0511 196.977 74.3693 196.928 74.6534 196.83C74.9413 196.727 75.1894 196.576 75.3977 196.375C75.6061 196.17 75.767 195.917 75.8807 195.614L77.1761 195.977C77.0398 196.417 76.8106 196.803 76.4886 197.136C76.1667 197.466 75.7689 197.723 75.2955 197.909C74.822 198.091 74.2898 198.182 73.6989 198.182ZM81.9205 198.205C81.3674 198.205 80.8655 198.1 80.4148 197.892C79.964 197.68 79.6061 197.375 79.3409 196.977C79.0758 196.576 78.9432 196.091 78.9432 195.523C78.9432 195.023 79.0417 194.617 79.2386 194.307C79.4356 193.992 79.6989 193.746 80.0284 193.568C80.358 193.39 80.7216 193.258 81.1193 193.17C81.5208 193.08 81.9242 193.008 82.3295 192.955C82.8598 192.886 83.2898 192.835 83.6193 192.801C83.9527 192.763 84.1951 192.701 84.3466 192.614C84.5019 192.527 84.5795 192.375 84.5795 192.159V192.114C84.5795 191.553 84.4261 191.117 84.1193 190.807C83.8163 190.496 83.3561 190.341 82.7386 190.341C82.0985 190.341 81.5966 190.481 81.233 190.761C80.8693 191.042 80.6136 191.341 80.4659 191.659L79.1932 191.205C79.4205 190.674 79.7235 190.261 80.1023 189.966C80.4848 189.667 80.9015 189.458 81.3523 189.341C81.8068 189.22 82.2538 189.159 82.6932 189.159C82.9735 189.159 83.2955 189.193 83.6591 189.261C84.0265 189.326 84.3807 189.46 84.7216 189.665C85.0663 189.869 85.3523 190.178 85.5795 190.591C85.8068 191.004 85.9205 191.557 85.9205 192.25V198H84.5795V196.818H84.5114C84.4205 197.008 84.2689 197.21 84.0568 197.426C83.8447 197.642 83.5625 197.826 83.2102 197.977C82.858 198.129 82.428 198.205 81.9205 198.205ZM82.125 197C82.6553 197 83.1023 196.896 83.4659 196.688C83.8333 196.479 84.1098 196.21 84.2955 195.881C84.4848 195.551 84.5795 195.205 84.5795 194.841V193.614C84.5227 193.682 84.3977 193.744 84.2045 193.801C84.0152 193.854 83.7955 193.902 83.5455 193.943C83.2992 193.981 83.0587 194.015 82.8239 194.045C82.5928 194.072 82.4053 194.095 82.2614 194.114C81.9129 194.159 81.5871 194.233 81.2841 194.335C80.9848 194.434 80.7424 194.583 80.5568 194.784C80.375 194.981 80.2841 195.25 80.2841 195.591C80.2841 196.057 80.4564 196.409 80.8011 196.648C81.1496 196.883 81.5909 197 82.125 197ZM88.3679 198V189.273H89.6634V190.591H89.7543C89.9134 190.159 90.2012 189.809 90.6179 189.54C91.0346 189.271 91.5043 189.136 92.027 189.136C92.1255 189.136 92.2486 189.138 92.3963 189.142C92.544 189.146 92.6558 189.152 92.7315 189.159V190.523C92.6861 190.511 92.5819 190.494 92.419 190.472C92.2599 190.445 92.0914 190.432 91.9134 190.432C91.4891 190.432 91.1103 190.521 90.777 190.699C90.4474 190.873 90.1861 191.116 89.9929 191.426C89.8035 191.733 89.7088 192.083 89.7088 192.477V198H88.3679ZM97.6009 198.182C96.7827 198.182 96.0781 197.989 95.4872 197.602C94.8963 197.216 94.4418 196.684 94.1236 196.006C93.8054 195.328 93.6463 194.553 93.6463 193.682C93.6463 192.795 93.8092 192.013 94.1349 191.335C94.4645 190.653 94.9228 190.121 95.5099 189.739C96.1009 189.352 96.7902 189.159 97.5781 189.159C98.1918 189.159 98.7448 189.273 99.2372 189.5C99.7296 189.727 100.133 190.045 100.447 190.455C100.762 190.864 100.957 191.341 101.033 191.886H99.6918C99.5895 191.489 99.3622 191.136 99.0099 190.83C98.6615 190.519 98.1918 190.364 97.6009 190.364C97.0781 190.364 96.6198 190.5 96.2259 190.773C95.8357 191.042 95.5308 191.422 95.3111 191.915C95.0952 192.403 94.9872 192.977 94.9872 193.636C94.9872 194.311 95.0933 194.898 95.3054 195.398C95.5213 195.898 95.8243 196.286 96.2145 196.562C96.6084 196.839 97.0705 196.977 97.6009 196.977C97.9493 196.977 98.2656 196.917 98.5497 196.795C98.8338 196.674 99.0743 196.5 99.2713 196.273C99.4683 196.045 99.6084 195.773 99.6918 195.455H101.033C100.957 195.97 100.769 196.434 100.47 196.847C100.175 197.256 99.7827 197.581 99.294 197.824C98.8092 198.062 98.2448 198.182 97.6009 198.182ZM104.334 192.75V198H102.993V186.364H104.334V190.636H104.447C104.652 190.186 104.959 189.828 105.368 189.562C105.781 189.294 106.33 189.159 107.016 189.159C107.61 189.159 108.131 189.278 108.578 189.517C109.025 189.752 109.372 190.114 109.618 190.602C109.868 191.087 109.993 191.705 109.993 192.455V198H108.652V192.545C108.652 191.852 108.472 191.316 108.112 190.938C107.756 190.555 107.262 190.364 106.629 190.364C106.19 190.364 105.796 190.456 105.447 190.642C105.103 190.828 104.83 191.098 104.629 191.455C104.432 191.811 104.334 192.242 104.334 192.75ZM42.0909 217L44.0227 205.364H47.4318C48.0833 205.364 48.6364 205.509 49.0909 205.801C49.5455 206.089 49.8731 206.491 50.0739 207.006C50.2746 207.517 50.3182 208.106 50.2045 208.773C50.0985 209.432 49.8598 210.017 49.4886 210.528C49.1174 211.036 48.6553 211.436 48.1023 211.727C47.5492 212.015 46.947 212.159 46.2955 212.159H43.0682L43.1364 211.795H46.3636C46.947 211.795 47.483 211.667 47.9716 211.409C48.464 211.152 48.8731 210.795 49.1989 210.341C49.5284 209.886 49.7424 209.364 49.8409 208.773C49.9394 208.174 49.8996 207.646 49.7216 207.188C49.5436 206.729 49.2519 206.371 48.8466 206.114C48.4413 205.856 47.947 205.727 47.3636 205.727H44.3182L42.4545 217H42.0909ZM54.5185 217.182C53.8291 217.182 53.242 216.983 52.7571 216.585C52.276 216.188 51.9313 215.644 51.723 214.955C51.5185 214.265 51.4882 213.485 51.6321 212.614C51.776 211.765 52.0601 211.004 52.4844 210.33C52.9124 209.652 53.4276 209.117 54.0298 208.727C54.6359 208.333 55.276 208.136 55.9503 208.136C56.6473 208.136 57.2363 208.337 57.7173 208.739C58.2022 209.14 58.5469 209.686 58.7514 210.375C58.9598 211.064 58.9957 211.841 58.8594 212.705C58.7154 213.553 58.4295 214.316 58.0014 214.994C57.5734 215.669 57.0563 216.203 56.4503 216.597C55.8442 216.987 55.2003 217.182 54.5185 217.182ZM54.5185 216.818C55.1473 216.818 55.7401 216.636 56.2969 216.273C56.8537 215.905 57.3272 215.405 57.7173 214.773C58.1075 214.136 58.367 213.417 58.4957 212.614C58.6245 211.833 58.5999 211.133 58.4219 210.511C58.2438 209.89 57.9427 209.4 57.5185 209.04C57.0942 208.68 56.5791 208.5 55.973 208.5C55.3518 208.5 54.7628 208.686 54.206 209.057C53.6491 209.424 53.1738 209.926 52.7798 210.562C52.3859 211.195 52.1245 211.909 51.9957 212.705C51.8594 213.485 51.8802 214.186 52.0582 214.807C52.2401 215.428 52.5431 215.919 52.9673 216.278C53.3954 216.638 53.9124 216.818 54.5185 216.818ZM60.6932 217L62.1477 208.273H62.5114L62.2841 209.659H62.3295C62.6023 209.205 62.9962 208.841 63.5114 208.568C64.0303 208.295 64.5909 208.159 65.1932 208.159C65.2386 208.159 65.2689 208.159 65.2841 208.159C65.2992 208.159 65.3295 208.159 65.375 208.159L65.3068 208.523C65.2614 208.523 65.2311 208.523 65.2159 208.523C65.2008 208.523 65.1705 208.523 65.125 208.523C64.6098 208.523 64.1326 208.634 63.6932 208.858C63.2576 209.081 62.892 209.39 62.5966 209.784C62.3049 210.178 62.1174 210.629 62.0341 211.136L61.0568 217H60.6932ZM70.625 208.273L70.5568 208.636H67.1023L67.1705 208.273H70.625ZM68.7841 206.182H69.1477L67.6705 215.159C67.6098 215.5 67.6345 215.794 67.7443 216.04C67.8542 216.282 68.0227 216.47 68.25 216.602C68.4773 216.731 68.7386 216.795 69.0341 216.795C69.1364 216.795 69.2348 216.786 69.3295 216.767C69.428 216.744 69.5341 216.716 69.6477 216.682L69.6932 217.023C69.5682 217.068 69.4489 217.102 69.3352 217.125C69.2254 217.148 69.1023 217.159 68.9659 217.159C68.6098 217.159 68.2936 217.078 68.017 216.915C67.7443 216.752 67.5398 216.521 67.4034 216.222C67.2708 215.922 67.2386 215.568 67.3068 215.159L68.7841 206.182ZM76.4602 208.273L76.392 208.636H72.9375L73.0057 208.273H76.4602ZM72.7557 217L74.4375 206.841C74.5057 206.432 74.6553 206.078 74.8864 205.778C75.1212 205.479 75.4034 205.248 75.733 205.085C76.0663 204.922 76.4148 204.841 76.7784 204.841C76.9148 204.841 77.0322 204.852 77.1307 204.875C77.233 204.894 77.3352 204.92 77.4375 204.955L77.2784 205.295C77.1875 205.273 77.0985 205.252 77.0114 205.233C76.9242 205.214 76.8239 205.205 76.7102 205.205C76.2784 205.205 75.8712 205.35 75.4886 205.642C75.1098 205.93 74.8807 206.33 74.8011 206.841L73.108 217H72.7557ZM80.0341 217.182C79.3447 217.182 78.7576 216.983 78.2727 216.585C77.7917 216.188 77.447 215.644 77.2386 214.955C77.0341 214.265 77.0038 213.485 77.1477 212.614C77.2917 211.765 77.5758 211.004 78 210.33C78.428 209.652 78.9432 209.117 79.5455 208.727C80.1515 208.333 80.7917 208.136 81.4659 208.136C82.1629 208.136 82.7519 208.337 83.233 208.739C83.7178 209.14 84.0625 209.686 84.267 210.375C84.4754 211.064 84.5114 211.841 84.375 212.705C84.2311 213.553 83.9451 214.316 83.517 214.994C83.089 215.669 82.572 216.203 81.9659 216.597C81.3598 216.987 80.7159 217.182 80.0341 217.182ZM80.0341 216.818C80.6629 216.818 81.2557 216.636 81.8125 216.273C82.3693 215.905 82.8428 215.405 83.233 214.773C83.6231 214.136 83.8826 213.417 84.0114 212.614C84.1402 211.833 84.1155 211.133 83.9375 210.511C83.7595 209.89 83.4583 209.4 83.0341 209.04C82.6098 208.68 82.0947 208.5 81.4886 208.5C80.8674 208.5 80.2784 208.686 79.7216 209.057C79.1648 209.424 78.6894 209.926 78.2955 210.562C77.9015 211.195 77.6402 211.909 77.5114 212.705C77.375 213.485 77.3958 214.186 77.5739 214.807C77.7557 215.428 78.0587 215.919 78.483 216.278C78.911 216.638 79.428 216.818 80.0341 216.818ZM88.5043 205.364L86.5724 217H86.2088L88.1406 205.364H88.5043ZM89.7074 217L91.1619 208.273H91.5256L90.071 217H89.7074ZM91.6278 206.682C91.5142 206.682 91.4233 206.642 91.3551 206.562C91.2907 206.483 91.268 206.386 91.2869 206.273C91.3021 206.193 91.3475 206.121 91.4233 206.057C91.4991 205.989 91.5824 205.955 91.6733 205.955C91.7869 205.955 91.8759 205.994 91.9403 206.074C92.0085 206.153 92.0331 206.25 92.0142 206.364C91.9991 206.447 91.9536 206.521 91.8778 206.585C91.8021 206.65 91.7188 206.682 91.6278 206.682ZM96.2997 217.182C95.6103 217.182 95.0232 216.983 94.5384 216.585C94.0573 216.188 93.7126 215.644 93.5043 214.955C93.2997 214.265 93.2694 213.485 93.4134 212.614C93.5573 211.765 93.8414 211.004 94.2656 210.33C94.6937 209.652 95.2088 209.117 95.8111 208.727C96.4171 208.333 97.0573 208.136 97.7315 208.136C98.4285 208.136 99.0175 208.337 99.4986 208.739C99.9834 209.14 100.328 209.686 100.533 210.375C100.741 211.064 100.777 211.841 100.641 212.705C100.497 213.553 100.211 214.316 99.7827 214.994C99.3546 215.669 98.8376 216.203 98.2315 216.597C97.6255 216.987 96.9815 217.182 96.2997 217.182ZM96.2997 216.818C96.9285 216.818 97.5213 216.636 98.0781 216.273C98.6349 215.905 99.1084 215.405 99.4986 214.773C99.8887 214.136 100.148 213.417 100.277 212.614C100.406 211.833 100.381 211.133 100.203 210.511C100.025 209.89 99.724 209.4 99.2997 209.04C98.8755 208.68 98.3603 208.5 97.7543 208.5C97.133 208.5 96.544 208.686 95.9872 209.057C95.4304 209.424 94.955 209.926 94.5611 210.562C94.1671 211.195 93.9058 211.909 93.777 212.705C93.6406 213.485 93.6615 214.186 93.8395 214.807C94.0213 215.428 94.3243 215.919 94.7486 216.278C95.1766 216.638 95.6937 216.818 96.2997 216.818ZM114.759 217L113.884 216.136L117.486 212.534H108.156V211.284H117.486L113.884 207.693L114.759 206.818L119.849 211.909L114.759 217Z" fill="#2F2222" fill-opacity="0.9"/>
</svg>
