<svg width="131" height="31" viewBox="0 0 131 31" fill="none" xmlns="http://www.w3.org/2000/svg">
<circle cx="28.0838" cy="15.5" r="15.5" fill="#0C090A"/>
<path d="M9.39891 2.00279C9.63291 1.34121 10.253 0.899658 10.9482 0.899658C11.8568 0.899658 12.5934 1.64416 12.5934 2.56255V28.3318C12.5934 29.3093 11.8095 30.1017 10.8424 30.1017H1.946C0.734861 30.1017 -0.110571 28.8888 0.297126 27.7361L9.39891 2.00279Z" fill="#0C090A"/>
<path d="M50.2285 9.92544H55.822C58.6511 9.92544 60.436 11.4262 60.436 14.0147C60.436 16.8865 58.2817 18.2128 55.6043 18.2128H52.1442V25.1519H50.2294V9.92456L50.2285 9.92544ZM55.7132 16.4295C57.3454 16.4295 58.4555 15.8637 58.4555 14.0366C58.4555 12.2095 57.3454 11.6657 55.7132 11.6657H52.1442V16.4295H55.7132Z" fill="#0C090A"/>
<path d="M63.9156 18.8414V16.231C63.9156 12.0759 66.0919 9.72693 69.9223 9.72693C73.7528 9.72693 75.9291 12.0759 75.9291 16.231V18.8414C75.9291 22.9964 73.7528 25.3454 69.9223 25.3454C66.0919 25.3454 63.9156 22.9964 63.9156 18.8414ZM69.9223 23.4964C72.8603 23.4964 73.9704 21.6912 73.9704 18.8414V16.231C73.9704 13.3811 72.8603 11.576 69.9223 11.576C66.9843 11.576 65.8742 13.3811 65.8742 16.231V18.8414C65.8742 21.6912 66.9843 23.4964 69.9223 23.4964Z" fill="#0C090A"/>
<path d="M79.6316 23.3458H82.8092V11.7297H79.6316V9.92456H87.9454V11.7297H84.7678V23.3458H87.9454V25.151H79.6316V23.3458Z" fill="#0C090A"/>
<path d="M92.512 9.92456H101.87V11.7087H94.4707V16.4076H101.195V18.1917H94.4707V23.3686H101.87V25.1527H92.512V9.92544V9.92456Z" fill="#0C090A"/>
<path d="M109.291 11.7297H104.807V9.92456H115.733V11.7297H111.249V25.1519H109.291V11.7297Z" fill="#0C090A"/>
<path d="M118.346 18.8414V16.231C118.346 12.0759 120.522 9.72693 124.353 9.72693C128.183 9.72693 130.36 12.0759 130.36 16.231V18.8414C130.36 22.9964 128.183 25.3454 124.353 25.3454C120.522 25.3454 118.346 22.9964 118.346 18.8414ZM124.353 23.4964C127.291 23.4964 128.401 21.6912 128.401 18.8414V16.231C128.401 13.3811 127.291 11.576 124.353 11.576C121.415 11.576 120.305 13.3811 120.305 16.231V18.8414C120.305 21.6912 121.415 23.4964 124.353 23.4964Z" fill="#0C090A"/>
</svg>
