<svg width="210" height="287" viewBox="0 0 210 287" fill="none" xmlns="http://www.w3.org/2000/svg">
<path d="M209.07 42.5105C212.561 49.3102 214.479 56.8076 214.682 64.4483L218.154 195.084C218.42 205.124 215.717 215.019 210.382 223.528L206.079 230.392C198.839 241.941 187.277 250.11 173.974 253.079L80.9035 273.843C50.4939 280.628 21.1619 258.798 18.9293 227.721L10.4447 109.614C9.66138 98.7107 12.4021 87.8443 18.2628 78.6168L45.3423 35.9805C54.4907 21.5765 70.2366 12.7021 87.2964 12.3351L160.522 10.7601C180.034 10.3404 198.075 21.0932 206.989 38.4557L209.07 42.5105Z" fill="#C9B5A9" fill-opacity="0.2"/>
<path d="M75.8864 152H74.4091L78.6818 140.364H80.1364L84.4091 152H82.9318L79.4545 142.205H79.3636L75.8864 152ZM76.4318 147.455H82.3864V148.705H76.4318V147.455ZM86.0398 152V143.273H87.3352V144.591H87.4261C87.5852 144.159 87.8731 143.809 88.2898 143.54C88.7064 143.271 89.1761 143.136 89.6989 143.136C89.7973 143.136 89.9205 143.138 90.0682 143.142C90.2159 143.146 90.3277 143.152 90.4034 143.159V144.523C90.358 144.511 90.2538 144.494 90.0909 144.472C89.9318 144.445 89.7633 144.432 89.5852 144.432C89.161 144.432 88.7822 144.521 88.4489 144.699C88.1193 144.873 87.858 145.116 87.6648 145.426C87.4754 145.733 87.3807 146.083 87.3807 146.477V152H86.0398ZM96.3352 143.273V144.409H91.8125V143.273H96.3352ZM93.1307 141.182H94.4716V149.5C94.4716 149.879 94.5265 150.163 94.6364 150.352C94.75 150.538 94.8939 150.663 95.0682 150.727C95.2462 150.788 95.4337 150.818 95.6307 150.818C95.7784 150.818 95.8996 150.811 95.9943 150.795C96.089 150.777 96.1648 150.761 96.2216 150.75L96.4943 151.955C96.4034 151.989 96.2765 152.023 96.1136 152.057C95.9508 152.095 95.7443 152.114 95.4943 152.114C95.1155 152.114 94.7443 152.032 94.3807 151.869C94.0208 151.706 93.7216 151.458 93.483 151.125C93.2481 150.792 93.1307 150.371 93.1307 149.864V141.182ZM75.0909 171L77.0227 159.364H80.4318C81.0833 159.364 81.6364 159.509 82.0909 159.801C82.5455 160.089 82.8731 160.491 83.0739 161.006C83.2746 161.517 83.3182 162.106 83.2045 162.773C83.0985 163.432 82.8598 164.017 82.4886 164.528C82.1174 165.036 81.6553 165.436 81.1023 165.727C80.5492 166.015 79.947 166.159 79.2955 166.159H76.0682L76.1364 165.795H79.3636C79.947 165.795 80.483 165.667 80.9716 165.409C81.464 165.152 81.8731 164.795 82.1989 164.341C82.5284 163.886 82.7424 163.364 82.8409 162.773C82.9394 162.174 82.8996 161.646 82.7216 161.188C82.5436 160.729 82.2519 160.371 81.8466 160.114C81.4413 159.856 80.947 159.727 80.3636 159.727H77.3182L75.4545 171H75.0909ZM87.5185 171.182C86.8291 171.182 86.242 170.983 85.7571 170.585C85.276 170.188 84.9313 169.644 84.723 168.955C84.5185 168.265 84.4882 167.485 84.6321 166.614C84.776 165.765 85.0601 165.004 85.4844 164.33C85.9124 163.652 86.4276 163.117 87.0298 162.727C87.6359 162.333 88.276 162.136 88.9503 162.136C89.6473 162.136 90.2363 162.337 90.7173 162.739C91.2022 163.14 91.5469 163.686 91.7514 164.375C91.9598 165.064 91.9957 165.841 91.8594 166.705C91.7154 167.553 91.4295 168.316 91.0014 168.994C90.5734 169.669 90.0563 170.203 89.4503 170.597C88.8442 170.987 88.2003 171.182 87.5185 171.182ZM87.5185 170.818C88.1473 170.818 88.7401 170.636 89.2969 170.273C89.8537 169.905 90.3272 169.405 90.7173 168.773C91.1075 168.136 91.367 167.417 91.4957 166.614C91.6245 165.833 91.5999 165.133 91.4219 164.511C91.2438 163.89 90.9427 163.4 90.5185 163.04C90.0942 162.68 89.5791 162.5 88.973 162.5C88.3518 162.5 87.7628 162.686 87.206 163.057C86.6491 163.424 86.1738 163.926 85.7798 164.562C85.3859 165.195 85.1245 165.909 84.9957 166.705C84.8594 167.485 84.8802 168.186 85.0582 168.807C85.2401 169.428 85.5431 169.919 85.9673 170.278C86.3954 170.638 86.9124 170.818 87.5185 170.818ZM93.6932 171L95.1477 162.273H95.5114L95.2841 163.659H95.3295C95.6023 163.205 95.9962 162.841 96.5114 162.568C97.0303 162.295 97.5909 162.159 98.1932 162.159C98.2386 162.159 98.2689 162.159 98.2841 162.159C98.2992 162.159 98.3295 162.159 98.375 162.159L98.3068 162.523C98.2614 162.523 98.2311 162.523 98.2159 162.523C98.2008 162.523 98.1705 162.523 98.125 162.523C97.6098 162.523 97.1326 162.634 96.6932 162.858C96.2576 163.081 95.892 163.39 95.5966 163.784C95.3049 164.178 95.1174 164.629 95.0341 165.136L94.0568 171H93.6932ZM103.625 162.273L103.557 162.636H100.102L100.17 162.273H103.625ZM101.784 160.182H102.148L100.67 169.159C100.61 169.5 100.634 169.794 100.744 170.04C100.854 170.282 101.023 170.47 101.25 170.602C101.477 170.731 101.739 170.795 102.034 170.795C102.136 170.795 102.235 170.786 102.33 170.767C102.428 170.744 102.534 170.716 102.648 170.682L102.693 171.023C102.568 171.068 102.449 171.102 102.335 171.125C102.225 171.148 102.102 171.159 101.966 171.159C101.61 171.159 101.294 171.078 101.017 170.915C100.744 170.752 100.54 170.521 100.403 170.222C100.271 169.922 100.239 169.568 100.307 169.159L101.784 160.182ZM109.46 162.273L109.392 162.636H105.938L106.006 162.273H109.46ZM105.756 171L107.438 160.841C107.506 160.432 107.655 160.078 107.886 159.778C108.121 159.479 108.403 159.248 108.733 159.085C109.066 158.922 109.415 158.841 109.778 158.841C109.915 158.841 110.032 158.852 110.131 158.875C110.233 158.894 110.335 158.92 110.438 158.955L110.278 159.295C110.188 159.273 110.098 159.252 110.011 159.233C109.924 159.214 109.824 159.205 109.71 159.205C109.278 159.205 108.871 159.35 108.489 159.642C108.11 159.93 107.881 160.33 107.801 160.841L106.108 171H105.756ZM113.034 171.182C112.345 171.182 111.758 170.983 111.273 170.585C110.792 170.188 110.447 169.644 110.239 168.955C110.034 168.265 110.004 167.485 110.148 166.614C110.292 165.765 110.576 165.004 111 164.33C111.428 163.652 111.943 163.117 112.545 162.727C113.152 162.333 113.792 162.136 114.466 162.136C115.163 162.136 115.752 162.337 116.233 162.739C116.718 163.14 117.063 163.686 117.267 164.375C117.475 165.064 117.511 165.841 117.375 166.705C117.231 167.553 116.945 168.316 116.517 168.994C116.089 169.669 115.572 170.203 114.966 170.597C114.36 170.987 113.716 171.182 113.034 171.182ZM113.034 170.818C113.663 170.818 114.256 170.636 114.812 170.273C115.369 169.905 115.843 169.405 116.233 168.773C116.623 168.136 116.883 167.417 117.011 166.614C117.14 165.833 117.116 165.133 116.938 164.511C116.759 163.89 116.458 163.4 116.034 163.04C115.61 162.68 115.095 162.5 114.489 162.5C113.867 162.5 113.278 162.686 112.722 163.057C112.165 163.424 111.689 163.926 111.295 164.562C110.902 165.195 110.64 165.909 110.511 166.705C110.375 167.485 110.396 168.186 110.574 168.807C110.756 169.428 111.059 169.919 111.483 170.278C111.911 170.638 112.428 170.818 113.034 170.818ZM121.504 159.364L119.572 171H119.209L121.141 159.364H121.504ZM122.707 171L124.162 162.273H124.526L123.071 171H122.707ZM124.628 160.682C124.514 160.682 124.423 160.642 124.355 160.562C124.291 160.483 124.268 160.386 124.287 160.273C124.302 160.193 124.348 160.121 124.423 160.057C124.499 159.989 124.582 159.955 124.673 159.955C124.787 159.955 124.876 159.994 124.94 160.074C125.009 160.153 125.033 160.25 125.014 160.364C124.999 160.447 124.954 160.521 124.878 160.585C124.802 160.65 124.719 160.682 124.628 160.682ZM129.3 171.182C128.61 171.182 128.023 170.983 127.538 170.585C127.057 170.188 126.713 169.644 126.504 168.955C126.3 168.265 126.269 167.485 126.413 166.614C126.557 165.765 126.841 165.004 127.266 164.33C127.694 163.652 128.209 163.117 128.811 162.727C129.417 162.333 130.057 162.136 130.732 162.136C131.429 162.136 132.018 162.337 132.499 162.739C132.983 163.14 133.328 163.686 133.533 164.375C133.741 165.064 133.777 165.841 133.641 166.705C133.497 167.553 133.211 168.316 132.783 168.994C132.355 169.669 131.838 170.203 131.232 170.597C130.625 170.987 129.982 171.182 129.3 171.182ZM129.3 170.818C129.929 170.818 130.521 170.636 131.078 170.273C131.635 169.905 132.108 169.405 132.499 168.773C132.889 168.136 133.148 167.417 133.277 166.614C133.406 165.833 133.381 165.133 133.203 164.511C133.025 163.89 132.724 163.4 132.3 163.04C131.875 162.68 131.36 162.5 130.754 162.5C130.133 162.5 129.544 162.686 128.987 163.057C128.43 163.424 127.955 163.926 127.561 164.562C127.167 165.195 126.906 165.909 126.777 166.705C126.641 167.485 126.661 168.186 126.839 168.807C127.021 169.428 127.324 169.919 127.749 170.278C128.177 170.638 128.694 170.818 129.3 170.818ZM147.759 171L146.884 170.136L150.486 166.534H141.156V165.284H150.486L146.884 161.693L147.759 160.818L152.849 165.909L147.759 171Z" fill="#2F2222" fill-opacity="0.9"/>
</svg>
