<svg width="205" height="265" viewBox="0 0 205 265" fill="none" xmlns="http://www.w3.org/2000/svg">
<path d="M198.758 31.7623C202.249 38.562 204.167 46.0594 204.37 53.7002L207.841 184.336C208.108 194.376 205.404 204.271 200.07 212.78L195.767 219.644C188.527 231.192 176.965 239.362 163.661 242.33L70.591 263.095C40.1814 269.879 10.8494 248.05 8.61683 216.973L0.132153 98.8658C-0.651123 87.9626 2.0896 77.0962 7.95026 67.8687L35.0298 25.2324C44.1782 10.8283 59.9241 1.95388 76.9839 1.58694L150.209 0.011912C169.722 -0.407785 187.763 10.3451 196.676 27.7075L198.758 31.7623Z" fill="#C9B5A9" fill-opacity="0.2"/>
</svg>
